<svg height="85.333336" viewBox="0 0 85.333336 85.333336" width="85.333336" xmlns="http://www.w3.org/2000/svg"><g transform="matrix(.13333333 0 0 -.13333333 0 85.333333)"><path d="m640 320c0-176.73-143.27-320-320-320s-320 143.27-320 320 143.27 320 320 320 320-143.27 320-320" fill="#c84755"/><path d="m320 80c-2.746 0-5.492.6016-7.578 1.8047l-52.621 30.3833c-4.168 2.406-9.801 10.667-9.801 15.484v40.41-20.41c0-4.817 5.633-13.078 9.801-15.484l52.621-30.383c2.086-1.203 4.832-1.805 7.578-1.805s5.492.602 7.578 1.805l52.621 30.383c4.168 2.406 9.801 10.667 9.801 15.484v-20c0-4.817-5.633-13.078-9.801-15.484l-52.621-30.3833c-2.086-1.2031-4.832-1.8047-7.578-1.8047" fill="#a43f4a"/><path d="m250 226.617v-78.945c0-4.817 5.633-13.078 9.801-15.484l52.621-30.383c4.168-2.4066 10.988-2.4066 15.156 0l52.621 30.383c4.168 2.406 9.801 10.667 9.801 15.484v78.945c-21.121-10.535-44.836-16.617-70-16.617s-48.879 6.082-70 16.617" fill="#e1e3cc"/><path d="m250 168.082c-44.332 24.633-74.332 71.941-74.332 126.254 0 4.324.187 8.602.562 12.832 4.305-48.867 32.969-90.75 73.77-113.422zm140 0v25.664c40.801 22.672 69.465 64.555 73.77 113.422.375-4.23.566-8.508.566-12.832 0-54.313-30.004-101.621-74.336-126.254" fill="#a43f4a"/><path d="m320 150c-25.402 0-49.266 6.559-70 18.082v25.664c20.734-11.519 44.598-18.078 70-18.078s49.266 6.559 70 18.078v-25.664c-20.734-11.523-44.598-18.082-70-18.082" fill="#b7b7a7"/><path d="m320 464.336c-79.715 0-144.332-64.621-144.332-144.336s64.617-144.332 144.332-144.332 144.336 64.617 144.336 144.332-64.621 144.336-144.336 144.336" fill="#fff"/><g fill="#a43f4a"><path d="m320 470.004c-8.285 0-15 6.715-15 15v20c0 8.281 6.715 15 15 15s15-6.719 15-15v-20c0-8.285-6.715-15-15-15"/><path d="m525 285.004h-20c-8.285 0-15 6.715-15 15 0 8.281 6.715 15 15 15h20c8.285 0 15-6.719 15-15 0-8.285-6.715-15-15-15"/><path d="m135 285.004h-20c-8.285 0-15 6.715-15 15 0 8.281 6.715 15 15 15h20c8.285 0 15-6.719 15-15 0-8.285-6.715-15-15-15"/><path d="m227.516 445.215c-5.188 0-10.227 2.691-13.004 7.504l-10 17.32c-4.145 7.172-1.688 16.348 5.488 20.488 2.363 1.364 4.941 2.012 7.484 2.012 5.188 0 10.227-2.687 13.004-7.5l10-17.32c4.145-7.176 1.688-16.352-5.488-20.492-2.363-1.364-4.941-2.012-7.484-2.012"/><path d="m480.23 377.5c-5.187 0-10.226 2.691-13.007 7.504-4.141 7.172-1.684 16.348 5.492 20.488l17.32 10c2.363 1.363 4.942 2.012 7.485 2.012 5.187 0 10.226-2.688 13.007-7.5 4.141-7.176 1.684-16.352-5.492-20.492l-17.32-10c-2.363-1.364-4.942-2.012-7.485-2.012"/><path d="m142.48 182.5c-5.183 0-10.226 2.691-13.007 7.504-4.141 7.172-1.684 16.348 5.492 20.488l17.32 10c2.363 1.363 4.942 2.012 7.488 2.012 5.184 0 10.223-2.688 13.004-7.5 4.141-7.176 1.684-16.352-5.492-20.492l-17.32-10c-2.363-1.364-4.942-2.012-7.485-2.012"/><path d="m159.77 377.5c-2.543 0-5.122.648-7.485 2.012l-17.32 10c-7.176 4.14-9.633 13.316-5.492 20.492 2.781 4.812 7.824 7.5 13.004 7.5 2.546 0 5.125-.649 7.488-2.012l17.32-10c7.176-4.14 9.633-13.316 5.492-20.488-2.781-4.813-7.824-7.504-13.007-7.504"/><path d="m497.52 182.5c-2.543 0-5.122.648-7.485 2.012l-17.32 10c-7.176 4.14-9.633 13.316-5.492 20.492 2.781 4.812 7.82 7.5 13.004 7.5 2.546 0 5.125-.649 7.488-2.012l17.32-10c7.176-4.14 9.633-13.316 5.492-20.488-2.781-4.813-7.824-7.504-13.007-7.504"/><path d="m412.484 445.215c-2.543 0-5.121.648-7.484 2.012-7.176 4.14-9.633 13.316-5.488 20.492l10 17.32c2.777 4.813 7.816 7.5 13.004 7.5 2.543 0 5.121-.648 7.484-2.012 7.176-4.14 9.633-13.316 5.488-20.488l-10-17.32c-2.777-4.813-7.82-7.504-13.004-7.504"/></g><path d="m320 464.336c-79.715 0-144.332-64.621-144.332-144.336s64.617-144.332 144.332-144.332 144.336 64.617 144.336 144.332-64.621 144.336-144.336 144.336" fill="#fff"/><path d="m335 505c0-8.285-6.715-15-15-15s-15 6.715-15 15v20c0 8.285 6.715 15 15 15s15-6.715 15-15z" fill="#e1e3cc"/><path d="m505 305c-8.285 0-15 6.715-15 15s6.715 15 15 15h20c8.285 0 15-6.715 15-15s-6.715-15-15-15z" fill="#e1e3cc"/><path d="m135 335c8.285 0 15-6.715 15-15s-6.715-15-15-15h-20c-8.285 0-15 6.715-15 15s6.715 15 15 15z" fill="#e1e3cc"/><path d="m240.488 487.715c4.145-7.176 1.688-16.348-5.488-20.492-7.176-4.141-16.348-1.684-20.488 5.492l-10 17.32c-4.145 7.176-1.688 16.348 5.488 20.492 7.176 4.141 16.348 1.684 20.488-5.492z" fill="#e1e3cc"/><path d="m487.715 399.512c-7.176-4.145-16.348-1.688-20.492 5.488-4.141 7.176-1.684 16.348 5.492 20.488l17.32 10c7.176 4.145 16.348 1.688 20.492-5.488 4.141-7.176 1.684-16.348-5.492-20.488z" fill="#e1e3cc"/><path d="m152.285 240.488c7.176 4.145 16.348 1.688 20.492-5.488 4.141-7.176 1.684-16.348-5.492-20.488l-17.32-10c-7.176-4.145-16.348-1.688-20.492 5.488-4.141 7.176-1.684 16.348 5.492 20.488z" fill="#e1e3cc"/><path d="m167.285 425.488c7.176-4.14 9.633-13.312 5.492-20.488-4.144-7.176-13.316-9.633-20.492-5.488l-17.32 10c-7.176 4.14-9.633 13.312-5.492 20.488 4.144 7.176 13.316 9.633 20.492 5.488z" fill="#e1e3cc"/><path d="m472.715 214.512c-7.176 4.14-9.633 13.312-5.492 20.488 4.144 7.176 13.316 9.633 20.492 5.488l17.32-10c7.176-4.14 9.633-13.312 5.492-20.488-4.144-7.176-13.316-9.633-20.492-5.488z" fill="#e1e3cc"/><path d="m425.488 472.715c-4.14-7.176-13.312-9.633-20.488-5.492-7.176 4.144-9.633 13.316-5.488 20.492l10 17.32c4.14 7.176 13.312 9.633 20.488 5.492 7.176-4.144 9.633-13.316 5.488-20.492z" fill="#e1e3cc"/></g></svg>