<svg version="1.1" id="Layer_1" xmlns="http://www.w3.org/2000/svg" xmlns:xlink="http://www.w3.org/1999/xlink" x="0px" y="0px"
	 width="100%" viewBox="0 0 1440 544" enable-background="new 0 0 1440 544" xml:space="preserve">
<path fill="#FEFFFF" opacity="1.000000" stroke="none" 
	d="
M1027.000000,545.000000 
	C684.709717,545.000000 342.919403,545.000000 1.064548,545.000000 
	C1.064548,363.732544 1.064548,182.465057 1.064548,1.098788 
	C481.000000,1.098788 961.000000,1.098788 1440.973633,1.098788 
	C1440.973633,182.414062 1440.973633,363.707031 1440.973633,545.000000 
	C1303.131592,545.000000 1165.315796,545.000000 1027.000000,545.000000 
M223.352554,369.889648 
	C223.352554,369.889648 223.330948,369.933655 222.739212,369.458557 
	C222.280197,369.254974 221.821167,369.051392 221.051712,368.242310 
	C214.876266,362.921295 208.700821,357.600281 202.525360,352.279266 
	C202.180115,352.599060 201.834854,352.918884 201.489594,353.238708 
	C206.380905,358.632080 211.272202,364.025452 216.372375,369.830872 
	C216.372375,369.830872 216.760361,370.081604 216.610916,370.230530 
	C216.610916,370.230530 216.906250,370.224457 217.200394,370.627899 
	C217.200394,370.627899 217.655167,370.833954 217.802094,371.416443 
	C219.223007,372.536896 220.643921,373.657318 222.349609,375.393494 
	C251.761337,400.868622 285.779388,411.772614 324.399689,406.525085 
	C340.951935,404.276031 356.359192,398.396332 367.948761,385.446625 
	C372.904877,379.908905 376.125092,373.677856 372.006561,365.404541 
	C371.644531,364.260559 371.282532,363.116608 371.358459,361.466522 
	C381.907562,346.626373 391.061737,331.039490 396.616669,313.579041 
	C397.330536,311.335236 397.315674,308.859558 397.908295,306.839111 
	C398.063538,306.766998 398.218781,306.694885 398.374023,306.622772 
	C398.147705,306.599213 397.921356,306.575653 397.207977,307.023071 
	C393.631531,310.096649 390.055115,313.170258 386.478668,316.243835 
	C385.979095,315.712036 385.479523,315.180206 384.979919,314.648407 
	C389.032898,310.238647 392.962799,305.706940 397.175781,301.455780 
	C400.900574,297.697205 403.455841,293.569336 404.175995,288.185303 
	C405.659454,277.094360 407.446503,266.044098 409.581177,254.281891 
	C409.603149,253.175507 409.625153,252.069107 409.933594,250.297607 
	C410.408691,245.434753 410.883789,240.571915 411.440308,234.875778 
	C408.326752,237.027725 406.034119,238.612289 403.741486,240.196854 
	C403.441345,239.833832 403.141205,239.470825 402.841064,239.107819 
	C405.296814,236.420288 407.752533,233.732758 410.904053,230.722565 
	C411.190338,227.822327 411.476654,224.922104 411.952118,221.110214 
	C411.922150,217.078033 411.892181,213.045837 412.025574,208.087570 
	C411.961304,201.732056 411.897003,195.376556 412.023407,188.141571 
	C412.219360,184.440918 412.415314,180.740280 412.849823,176.218689 
	C412.876709,172.411636 412.903625,168.604599 413.490295,164.639084 
	C413.728302,164.086594 413.966309,163.534103 414.596558,162.250122 
	C414.677551,161.150574 414.758545,160.051041 415.372345,158.451355 
	C417.871460,151.622070 420.370575,144.792801 423.038300,137.515656 
	C423.038300,137.515656 423.047180,137.037186 423.531219,136.843140 
	C423.832520,136.508713 424.133820,136.174286 424.435089,135.839874 
	C423.955688,136.007263 423.476257,136.174667 422.268402,136.051682 
	C419.160583,137.685028 416.052795,139.318390 412.563293,141.091736 
	C412.563293,141.091736 412.206116,141.285965 411.492401,141.107574 
	C404.133545,145.875046 396.485107,150.254639 389.474304,155.488358 
	C373.414917,167.477066 359.903992,181.667023 352.255157,200.984497 
	C350.478180,197.339172 348.701172,193.693863 346.883545,189.338745 
	C344.655731,185.862625 342.427948,182.386505 340.036987,178.224945 
	C334.731476,171.084885 329.614960,163.792831 324.043213,156.866959 
	C321.123596,153.237778 317.405426,150.250992 313.654572,146.440582 
	C312.714691,145.279037 311.842072,144.053421 310.814606,142.975311 
	C309.917023,142.033493 308.845215,141.257706 307.850403,140.408569 
	C308.288269,140.430634 308.726166,140.452698 309.164032,140.474762 
	C309.271027,149.881332 310.229950,159.377792 309.249542,168.669632 
	C308.233063,178.303497 305.337738,187.739136 302.958466,197.800171 
	C301.053833,204.864151 299.149231,211.928116 296.945862,219.719406 
	C295.667603,226.828110 294.389343,233.936798 292.848633,241.806839 
	C291.685791,252.647339 291.677124,263.416016 294.852692,274.795837 
	C297.783905,287.966766 303.664581,299.835754 311.205505,310.885193 
	C316.998657,319.373627 323.172577,327.602234 328.465454,336.212280 
	C327.526367,335.586670 326.526642,335.035065 325.657990,334.323486 
	C319.813416,329.535614 313.996674,324.713837 307.827576,319.323334 
	C301.553131,312.549377 293.822876,308.033447 285.005798,304.156067 
	C284.064880,303.496124 283.162445,302.771332 282.177124,302.186157 
	C271.182068,295.655853 260.436157,288.803162 252.129974,278.824005 
	C246.906555,272.548523 241.735321,266.229584 236.446518,259.815979 
	C236.156845,262.810333 235.776474,266.025848 235.545853,269.252045 
	C234.633179,282.019562 234.604691,294.713440 239.021484,307.771759 
	C240.585754,311.209717 242.150024,314.647705 243.799377,318.747498 
	C243.714401,319.529572 243.290375,320.490692 243.594788,321.067108 
	C249.034119,331.366058 252.761047,343.082397 265.535706,347.326569 
	C268.146179,348.193909 270.511017,349.800598 272.992462,351.738647 
	C272.989990,352.187073 272.987518,352.635468 272.347534,353.074585 
	C271.761719,353.164734 271.175903,353.254883 269.438446,353.522308 
	C273.231476,355.822174 276.135651,357.583069 279.619019,359.800140 
	C285.515411,362.842010 291.411835,365.883850 297.749512,369.405945 
	C298.821594,369.649109 299.893677,369.892303 300.960052,370.048462 
	C300.960052,370.048462 300.889832,370.100220 301.236176,370.670380 
	C302.483307,371.087982 303.730408,371.505585 305.476501,372.121368 
	C305.830688,372.124023 306.184906,372.126678 307.069611,372.682190 
	C313.370819,373.984955 319.671997,375.287689 326.844879,376.814026 
	C329.235992,376.747406 331.627136,376.680786 334.852722,376.800964 
	C337.535034,376.451111 340.217316,376.101257 343.605103,375.842072 
	C344.066040,375.749725 344.526978,375.657410 345.759613,375.699768 
	C347.816803,375.940918 350.654572,373.097168 351.327332,377.399902 
	C351.327332,377.399902 350.992493,377.695190 350.651855,377.579346 
	C350.388153,377.633514 350.218903,377.790070 349.466431,378.305359 
	C324.714691,390.045959 298.881958,393.914520 271.777802,389.326141 
	C254.793304,386.450928 239.330536,379.856537 224.625732,370.704346 
	C224.464355,370.477936 224.265686,370.438354 223.692184,370.191010 
	C223.541656,370.105560 223.391113,370.020111 223.352554,369.889648 
M709.016846,254.182938 
	C717.552612,255.166306 724.603821,259.004242 727.862671,267.015381 
	C730.186401,272.727692 731.586182,279.159729 731.789612,285.323700 
	C732.317017,301.304443 731.948914,317.314545 731.959961,333.312927 
	C731.960938,334.747375 732.118652,336.181671 732.196106,337.489258 
	C737.962769,337.489258 743.342102,337.489258 748.884644,337.489258 
	C748.884644,327.059937 748.990356,317.064606 748.857178,307.072479 
	C748.699585,295.251892 749.056274,283.363037 747.899231,271.631073 
	C745.985779,252.229904 732.026794,239.920975 712.553955,238.822617 
	C696.875244,237.938293 684.021118,243.289124 674.036438,255.848770 
	C666.459045,244.632294 655.991455,239.480881 643.065063,238.796082 
	C630.151978,238.111938 619.078186,242.046982 609.692139,253.216476 
	C609.692139,247.910904 609.692139,244.320312 609.692139,240.699066 
	C604.029968,240.699066 598.781311,240.699066 593.577515,240.699066 
	C593.577515,273.251343 593.577515,305.461212 593.577515,337.503143 
	C599.237366,337.503143 604.477417,337.503143 609.959900,337.503143 
	C609.959900,320.449646 609.743530,303.788452 610.081177,287.138519 
	C610.194153,281.567993 611.048828,275.810364 612.746948,270.517639 
	C615.969849,260.472351 624.851379,254.412430 635.479736,254.061203 
	C646.047424,253.712006 654.597839,257.476898 658.939392,267.520538 
	C660.866211,271.977936 661.920044,277.124908 662.044189,281.992676 
	C662.473328,298.814301 662.319702,315.650787 662.386047,332.481628 
	C662.392883,334.219238 662.386963,335.956879 662.386963,337.607544 
	C668.467834,337.607544 673.719299,337.607544 679.326355,337.607544 
	C679.326355,328.157562 679.239929,319.011108 679.349121,309.867004 
	C679.474365,299.379974 679.045532,288.816681 680.164368,278.427246 
	C681.904236,262.272186 691.873779,254.132675 709.016846,254.182938 
M811.779053,254.311081 
	C813.707336,254.808884 815.660217,255.227402 817.559875,255.817429 
	C829.216064,259.437897 835.329163,269.202728 833.257812,281.296143 
	C826.359741,280.679077 819.435120,279.905914 812.489258,279.473450 
	C801.434143,278.785126 790.488647,279.339874 780.289551,284.298492 
	C762.032593,293.174652 758.945496,318.592773 774.664551,331.486420 
	C786.338684,341.062225 800.071411,342.081085 813.862122,338.383575 
	C821.058594,336.454102 827.518921,331.779480 833.973877,328.515594 
	C834.096008,330.917328 834.268616,334.311310 834.438110,337.644592 
	C840.163208,337.644592 845.263550,337.644592 850.261658,337.644592 
	C850.498474,337.097382 850.735718,336.804840 850.735962,336.512085 
	C850.752869,316.535461 851.044434,296.553009 850.649963,276.584167 
	C850.374939,262.657562 845.462219,250.829605 832.129456,244.157791 
	C820.303955,238.240234 807.833313,237.756332 795.125183,240.315750 
	C786.351562,242.082733 778.069824,245.147415 770.346130,250.076492 
	C772.748230,254.687485 774.875732,258.771393 777.161011,263.158264 
	C787.664917,256.717651 798.752930,253.322189 811.779053,254.311081 
M1239.770996,240.329758 
	C1235.938354,240.312119 1232.064453,239.951660 1228.288452,240.405411 
	C1226.023926,240.677536 1223.398926,241.703339 1221.812500,243.275116 
	C1208.203125,256.758514 1194.815186,270.465027 1181.301514,284.045593 
	C1179.394775,285.961823 1177.166992,287.558838 1173.943726,290.263763 
	C1173.943726,260.341888 1173.943726,231.986191 1173.943726,203.499298 
	C1168.693970,203.499298 1164.118286,203.499298 1159.305664,203.499298 
	C1159.305664,248.369308 1159.305664,292.905579 1159.305664,337.575897 
	C1164.259521,337.575897 1168.837402,337.575897 1174.023071,337.575897 
	C1174.023071,329.632446 1173.975830,322.016327 1174.061523,314.401733 
	C1174.079590,312.797302 1174.026123,310.666748 1174.959351,309.685059 
	C1180.094360,304.282898 1185.525757,299.162231 1191.035767,293.768494 
	C1192.082153,294.891510 1192.772705,295.564209 1193.386108,296.301147 
	C1204.141235,309.222809 1214.864746,322.170776 1225.671265,335.049225 
	C1226.666260,336.234985 1228.133301,337.733978 1229.455811,337.811340 
	C1234.829102,338.125671 1240.231567,337.942078 1247.113770,337.942078 
	C1238.796631,327.937073 1231.476807,319.161652 1224.190430,310.358398 
	C1216.795776,301.424164 1209.434326,292.462555 1201.137695,282.395844 
	C1207.081787,276.880310 1212.826660,271.811523 1218.269287,266.436523 
	C1225.969360,258.831909 1233.456055,251.010574 1241.007935,243.256577 
	C1242.047729,242.188980 1244.190186,240.784729 1239.770996,240.329758 
M576.830017,304.772156 
	C575.210754,297.445465 571.045105,291.876984 564.204224,289.030212 
	C556.877319,285.981323 549.227600,283.690125 541.667053,281.226990 
	C536.463379,279.531677 531.005188,278.512024 525.967285,276.443787 
	C521.197754,274.485779 518.323303,270.602234 518.723389,265.032043 
	C519.110535,259.639526 522.506897,256.370941 527.263794,255.173950 
	C531.858521,254.017807 536.940674,252.955536 541.466492,253.765091 
	C550.005432,255.292526 558.298645,258.193665 567.457947,260.735901 
	C569.163513,257.681152 571.555237,253.397522 574.228699,248.609344 
	C555.465698,238.634506 536.529602,234.500381 516.687134,243.685760 
	C506.896973,248.217804 501.322754,256.375732 501.400330,267.510284 
	C501.479919,278.938629 507.451050,286.539307 517.778992,290.884705 
	C520.680237,292.105377 523.676086,293.147461 526.701660,294.017548 
	C535.161682,296.450439 543.744507,298.489746 552.110779,301.202728 
	C556.968872,302.778107 560.305115,306.167267 560.167114,311.936890 
	C560.028503,317.730103 556.800659,321.065460 551.776306,323.119019 
	C544.384766,326.140076 536.571594,326.245911 529.186096,324.294403 
	C520.689575,322.049316 512.590210,318.301514 503.941528,315.065430 
	C501.915375,318.193024 499.340302,322.167908 496.565582,326.450958 
	C514.299683,338.623047 532.940552,343.103729 553.419189,338.049835 
	C570.200195,333.908539 578.218201,322.616852 576.830017,304.772156 
M1114.289795,241.074356 
	C1097.022095,235.884827 1081.567383,238.935394 1068.061890,252.472473 
	C1067.777832,247.945587 1068.750000,243.594772 1067.021118,241.669128 
	C1065.409790,239.874451 1060.918579,240.712204 1057.707397,240.295837 
	C1053.545532,239.756195 1052.386108,241.514282 1052.418213,245.629669 
	C1052.604248,269.441345 1052.515869,293.255188 1052.519775,317.068298 
	C1052.520874,323.838226 1052.520020,330.608124 1052.520020,337.429688 
	C1057.917603,337.429688 1062.604858,337.429688 1067.629150,337.429688 
	C1067.629150,335.156586 1067.619629,333.344025 1067.630737,331.531616 
	C1067.734253,314.547699 1067.399048,297.546204 1068.072998,280.584839 
	C1068.732300,263.989594 1080.558594,253.479935 1097.209351,253.496368 
	C1112.962646,253.511917 1122.456909,262.795288 1123.142456,280.156189 
	C1123.779175,296.278870 1123.403320,312.440857 1123.523682,328.585144 
	C1123.545654,331.529053 1123.809692,334.471161 1123.965088,337.475586 
	C1129.177734,337.475586 1133.899536,337.475586 1138.795166,337.475586 
	C1138.795166,316.105591 1139.500488,295.115356 1138.561035,274.198975 
	C1137.870605,258.826965 1130.169800,247.062668 1114.289795,241.074356 
M954.614868,216.687531 
	C952.325623,216.687531 950.036377,216.687531 947.118469,216.687531 
	C947.118469,224.853821 947.118469,232.573273 947.118469,240.660065 
	C941.865051,240.660065 937.245728,240.660065 932.428589,240.660065 
	C932.428589,245.638321 932.428589,250.213547 932.428589,255.339966 
	C937.430237,255.339966 942.161499,255.339966 947.215820,255.339966 
	C947.215820,268.693817 947.125427,281.498688 947.249390,294.301453 
	C947.324951,302.114044 947.170044,309.992401 948.120422,317.717957 
	C949.510010,329.013306 957.658325,336.898468 968.781616,339.203979 
	C978.562378,341.231201 987.487549,338.814270 996.462402,334.432648 
	C994.770813,329.903931 993.165283,325.605438 991.502686,321.154266 
	C990.627563,321.510559 990.013550,321.725800 989.429260,322.003540 
	C974.125244,329.278046 964.112854,323.113342 964.063110,306.295380 
	C964.017273,290.808838 964.081848,275.321899 964.126953,259.835236 
	C964.131104,258.412506 964.346802,256.990356 964.499939,255.135437 
	C973.789551,255.135437 982.719666,255.135437 991.567017,255.135437 
	C991.567017,250.090485 991.567017,245.524582 991.567017,240.311005 
	C982.320984,240.311005 973.430847,240.311005 964.029175,240.311005 
	C964.029175,232.107178 964.029175,224.550873 964.029175,216.691330 
	C960.847168,216.691330 958.198425,216.691330 954.614868,216.687531 
M873.989624,304.500000 
	C873.989624,315.569183 873.989624,326.638367 873.989624,337.627319 
	C879.959412,337.627319 885.208252,337.627319 890.849609,337.627319 
	C890.849609,335.708984 890.845459,334.081604 890.850281,332.454193 
	C890.894714,317.474121 890.714539,302.489075 891.044495,287.515259 
	C891.440735,269.536194 902.156189,257.749176 918.911743,256.262115 
	C920.831238,256.091766 922.760803,256.035309 924.723083,255.923920 
	C924.723083,250.089005 924.723083,244.693665 924.723083,239.336487 
	C912.131165,238.211258 907.136658,240.536133 890.921387,255.081039 
	C890.921387,250.151443 890.921387,245.607132 890.921387,240.757675 
	C885.070312,240.757675 879.678650,240.757675 873.990479,240.757675 
	C873.990479,261.916168 873.990479,282.708099 873.989624,304.500000 
M1030.516235,303.135345 
	C1030.522461,273.308380 1030.528931,243.481400 1030.534302,213.654419 
	C1030.534424,212.821320 1030.831177,211.792297 1030.452148,211.196640 
	C1029.706787,210.025055 1028.651001,208.294373 1027.603516,208.205185 
	C1023.527893,207.858246 1019.405151,208.063812 1015.167725,208.063812 
	C1015.167725,251.599457 1015.167725,294.490601 1015.167725,337.464478 
	C1020.365723,337.464478 1025.207642,337.464478 1030.495605,337.464478 
	C1030.495605,325.992188 1030.495605,315.023743 1030.516235,303.135345 
M426.314056,133.521973 
	C426.124298,133.528030 425.934540,133.534088 425.744781,133.540146 
	C425.866943,133.583755 425.989105,133.627365 426.314056,133.521973 
z"/>
<path fill="#31343B" opacity="1.000000" stroke="none" 
	d="
M708.594360,254.153259 
	C691.873779,254.132675 681.904236,262.272186 680.164368,278.427246 
	C679.045532,288.816681 679.474365,299.379974 679.349121,309.867004 
	C679.239929,319.011108 679.326355,328.157562 679.326355,337.607544 
	C673.719299,337.607544 668.467834,337.607544 662.386963,337.607544 
	C662.386963,335.956879 662.392883,334.219238 662.386047,332.481628 
	C662.319702,315.650787 662.473328,298.814301 662.044189,281.992676 
	C661.920044,277.124908 660.866211,271.977936 658.939392,267.520538 
	C654.597839,257.476898 646.047424,253.712006 635.479736,254.061203 
	C624.851379,254.412430 615.969849,260.472351 612.746948,270.517639 
	C611.048828,275.810364 610.194153,281.567993 610.081177,287.138519 
	C609.743530,303.788452 609.959900,320.449646 609.959900,337.503143 
	C604.477417,337.503143 599.237366,337.503143 593.577515,337.503143 
	C593.577515,305.461212 593.577515,273.251343 593.577515,240.699066 
	C598.781311,240.699066 604.029968,240.699066 609.692139,240.699066 
	C609.692139,244.320312 609.692139,247.910904 609.692139,253.216476 
	C619.078186,242.046982 630.151978,238.111938 643.065063,238.796082 
	C655.991455,239.480881 666.459045,244.632294 674.036438,255.848770 
	C684.021118,243.289124 696.875244,237.938293 712.553955,238.822617 
	C732.026794,239.920975 745.985779,252.229904 747.899231,271.631073 
	C749.056274,283.363037 748.699585,295.251892 748.857178,307.072479 
	C748.990356,317.064606 748.884644,327.059937 748.884644,337.489258 
	C743.342102,337.489258 737.962769,337.489258 732.196106,337.489258 
	C732.118652,336.181671 731.960938,334.747375 731.959961,333.312927 
	C731.948914,317.314545 732.317017,301.304443 731.789612,285.323700 
	C731.586182,279.159729 730.186401,272.727692 727.862671,267.015381 
	C724.603821,259.004242 717.552612,255.166306 708.594360,254.153259 
z"/>
<path fill="#2F323A" opacity="1.000000" stroke="none" 
	d="
M811.350037,254.246979 
	C798.752930,253.322189 787.664917,256.717651 777.161011,263.158264 
	C774.875732,258.771393 772.748230,254.687485 770.346130,250.076492 
	C778.069824,245.147415 786.351562,242.082733 795.125183,240.315750 
	C807.833313,237.756332 820.303955,238.240234 832.129456,244.157791 
	C845.462219,250.829605 850.374939,262.657562 850.649963,276.584167 
	C851.044434,296.553009 850.752869,316.535461 850.735962,336.512085 
	C850.735718,336.804840 850.498474,337.097382 850.261658,337.644592 
	C845.263550,337.644592 840.163208,337.644592 834.438110,337.644592 
	C834.268616,334.311310 834.096008,330.917328 833.973877,328.515594 
	C827.518921,331.779480 821.058594,336.454102 813.862122,338.383575 
	C800.071411,342.081085 786.338684,341.062225 774.664551,331.486420 
	C758.945496,318.592773 762.032593,293.174652 780.289551,284.298492 
	C790.488647,279.339874 801.434143,278.785126 812.489258,279.473450 
	C819.435120,279.905914 826.359741,280.679077 833.257812,281.296143 
	C835.329163,269.202728 829.216064,259.437897 817.559875,255.817429 
	C815.660217,255.227402 813.707336,254.808884 811.350037,254.246979 
M807.224792,326.038849 
	C828.101379,324.737549 836.511780,308.348022 832.727600,293.006317 
	C822.445251,293.006317 811.819580,292.796967 801.210510,293.123596 
	C797.656860,293.233032 793.987183,294.314636 790.650513,295.651093 
	C785.268616,297.806763 782.357300,302.152466 781.926025,307.971191 
	C781.469482,314.131226 783.453186,319.731995 789.150879,322.128937 
	C794.482727,324.372040 800.559692,324.844269 807.224792,326.038849 
z"/>
<path fill="#3F9BDD" opacity="1.000000" stroke="none" 
	d="
M1240.171509,240.333496 
	C1244.190186,240.784729 1242.047729,242.188980 1241.007935,243.256577 
	C1233.456055,251.010574 1225.969360,258.831909 1218.269287,266.436523 
	C1212.826660,271.811523 1207.081787,276.880310 1201.137695,282.395844 
	C1209.434326,292.462555 1216.795776,301.424164 1224.190430,310.358398 
	C1231.476807,319.161652 1238.796631,327.937073 1247.113770,337.942078 
	C1240.231567,337.942078 1234.829102,338.125671 1229.455811,337.811340 
	C1228.133301,337.733978 1226.666260,336.234985 1225.671265,335.049225 
	C1214.864746,322.170776 1204.141235,309.222809 1193.386108,296.301147 
	C1192.772705,295.564209 1192.082153,294.891510 1191.035767,293.768494 
	C1185.525757,299.162231 1180.094360,304.282898 1174.959351,309.685059 
	C1174.026123,310.666748 1174.079590,312.797302 1174.061523,314.401733 
	C1173.975830,322.016327 1174.023071,329.632446 1174.023071,337.575897 
	C1168.837402,337.575897 1164.259521,337.575897 1159.305664,337.575897 
	C1159.305664,292.905579 1159.305664,248.369308 1159.305664,203.499298 
	C1164.118286,203.499298 1168.693970,203.499298 1173.943726,203.499298 
	C1173.943726,231.986191 1173.943726,260.341888 1173.943726,290.263763 
	C1177.166992,287.558838 1179.394775,285.961823 1181.301514,284.045593 
	C1194.815186,270.465027 1208.203125,256.758514 1221.812500,243.275116 
	C1223.398926,241.703339 1226.023926,240.677536 1228.288452,240.405411 
	C1232.064453,239.951660 1235.938354,240.312119 1240.171509,240.333496 
z"/>
<path fill="#2F323A" opacity="1.000000" stroke="none" 
	d="
M576.895264,305.170044 
	C578.218201,322.616852 570.200195,333.908539 553.419189,338.049835 
	C532.940552,343.103729 514.299683,338.623047 496.565582,326.450958 
	C499.340302,322.167908 501.915375,318.193024 503.941528,315.065430 
	C512.590210,318.301514 520.689575,322.049316 529.186096,324.294403 
	C536.571594,326.245911 544.384766,326.140076 551.776306,323.119019 
	C556.800659,321.065460 560.028503,317.730103 560.167114,311.936890 
	C560.305115,306.167267 556.968872,302.778107 552.110779,301.202728 
	C543.744507,298.489746 535.161682,296.450439 526.701660,294.017548 
	C523.676086,293.147461 520.680237,292.105377 517.778992,290.884705 
	C507.451050,286.539307 501.479919,278.938629 501.400330,267.510284 
	C501.322754,256.375732 506.896973,248.217804 516.687134,243.685760 
	C536.529602,234.500381 555.465698,238.634506 574.228699,248.609344 
	C571.555237,253.397522 569.163513,257.681152 567.457947,260.735901 
	C558.298645,258.193665 550.005432,255.292526 541.466492,253.765091 
	C536.940674,252.955536 531.858521,254.017807 527.263794,255.173950 
	C522.506897,256.370941 519.110535,259.639526 518.723389,265.032043 
	C518.323303,270.602234 521.197754,274.485779 525.967285,276.443787 
	C531.005188,278.512024 536.463379,279.531677 541.667053,281.226990 
	C549.227600,283.690125 556.877319,285.981323 564.204224,289.030212 
	C571.045105,291.876984 575.210754,297.445465 576.895264,305.170044 
z"/>
<path fill="#3B9ADE" opacity="1.000000" stroke="none" 
	d="
M1114.663086,241.198166 
	C1130.169800,247.062668 1137.870605,258.826965 1138.561035,274.198975 
	C1139.500488,295.115356 1138.795166,316.105591 1138.795166,337.475586 
	C1133.899536,337.475586 1129.177734,337.475586 1123.965088,337.475586 
	C1123.809692,334.471161 1123.545654,331.529053 1123.523682,328.585144 
	C1123.403320,312.440857 1123.779175,296.278870 1123.142456,280.156189 
	C1122.456909,262.795288 1112.962646,253.511917 1097.209351,253.496368 
	C1080.558594,253.479935 1068.732300,263.989594 1068.072998,280.584839 
	C1067.399048,297.546204 1067.734253,314.547699 1067.630737,331.531616 
	C1067.619629,333.344025 1067.629150,335.156586 1067.629150,337.429688 
	C1062.604858,337.429688 1057.917603,337.429688 1052.520020,337.429688 
	C1052.520020,330.608124 1052.520874,323.838226 1052.519775,317.068298 
	C1052.515869,293.255188 1052.604248,269.441345 1052.418213,245.629669 
	C1052.386108,241.514282 1053.545532,239.756195 1057.707397,240.295837 
	C1060.918579,240.712204 1065.409790,239.874451 1067.021118,241.669128 
	C1068.750000,243.594772 1067.777832,247.945587 1068.061890,252.472473 
	C1081.567383,238.935394 1097.022095,235.884827 1114.663086,241.198166 
z"/>
<path fill="#2F323A" opacity="1.000000" stroke="none" 
	d="
M955.082275,216.689423 
	C958.198425,216.691330 960.847168,216.691330 964.029175,216.691330 
	C964.029175,224.550873 964.029175,232.107178 964.029175,240.311005 
	C973.430847,240.311005 982.320984,240.311005 991.567017,240.311005 
	C991.567017,245.524582 991.567017,250.090485 991.567017,255.135437 
	C982.719666,255.135437 973.789551,255.135437 964.499939,255.135437 
	C964.346802,256.990356 964.131104,258.412506 964.126953,259.835236 
	C964.081848,275.321899 964.017273,290.808838 964.063110,306.295380 
	C964.112854,323.113342 974.125244,329.278046 989.429260,322.003540 
	C990.013550,321.725800 990.627563,321.510559 991.502686,321.154266 
	C993.165283,325.605438 994.770813,329.903931 996.462402,334.432648 
	C987.487549,338.814270 978.562378,341.231201 968.781616,339.203979 
	C957.658325,336.898468 949.510010,329.013306 948.120422,317.717957 
	C947.170044,309.992401 947.324951,302.114044 947.249390,294.301453 
	C947.125427,281.498688 947.215820,268.693817 947.215820,255.339966 
	C942.161499,255.339966 937.430237,255.339966 932.428589,255.339966 
	C932.428589,250.213547 932.428589,245.638321 932.428589,240.660065 
	C937.245728,240.660065 941.865051,240.660065 947.118469,240.660065 
	C947.118469,232.573273 947.118469,224.853821 947.118469,216.687531 
	C950.036377,216.687531 952.325623,216.687531 955.082275,216.689423 
z"/>
<path fill="#3C97D8" opacity="1.000000" stroke="none" 
	d="
M221.362152,368.847809 
	C221.821167,369.051392 222.280197,369.254974 223.021942,369.671814 
	C223.304672,369.885071 223.240585,369.934662 223.240585,369.934662 
	C223.391113,370.020111 223.541656,370.105560 223.961624,370.475159 
	C224.371338,370.875458 224.525986,370.967468 224.695007,371.035370 
	C239.330536,379.856537 254.793304,386.450928 271.777802,389.326141 
	C298.881958,393.914520 324.714691,390.045959 349.963898,378.166656 
	C350.671967,377.970581 350.849030,377.859650 350.992493,377.695190 
	C350.992493,377.695190 351.327332,377.399902 351.814880,377.226379 
	C353.879425,376.058167 355.456390,375.063446 357.311157,373.907715 
	C358.126038,372.863586 358.663116,371.980438 359.453705,370.962097 
	C360.394440,370.547791 361.081726,370.268738 362.127930,369.928223 
	C363.417328,369.207031 364.347778,368.547333 365.603668,367.859131 
	C366.137970,367.893280 366.346832,367.955963 366.891449,367.929688 
	C368.991302,367.224426 370.755371,366.608093 372.519470,365.991760 
	C376.125092,373.677856 372.904877,379.908905 367.948761,385.446625 
	C356.359192,398.396332 340.951935,404.276031 324.399689,406.525085 
	C285.779388,411.772614 251.761337,400.868622 222.153442,374.764893 
	C220.523224,373.035522 219.089203,371.934723 217.655167,370.833954 
	C217.655167,370.833954 217.200394,370.627899 217.017670,370.419006 
	C216.834961,370.210144 216.760361,370.081604 216.760361,370.081604 
	C216.760361,370.081604 216.372375,369.830872 216.239227,369.320923 
	C216.838303,368.489288 217.588211,367.873108 218.298538,367.915771 
	C219.334671,367.978027 220.342346,368.513885 221.362152,368.847809 
z"/>
<path fill="#31343B" opacity="1.000000" stroke="none" 
	d="
M873.990051,304.000000 
	C873.990479,282.708099 873.990479,261.916168 873.990479,240.757675 
	C879.678650,240.757675 885.070312,240.757675 890.921387,240.757675 
	C890.921387,245.607132 890.921387,250.151443 890.921387,255.081039 
	C907.136658,240.536133 912.131165,238.211258 924.723083,239.336487 
	C924.723083,244.693665 924.723083,250.089005 924.723083,255.923920 
	C922.760803,256.035309 920.831238,256.091766 918.911743,256.262115 
	C902.156189,257.749176 891.440735,269.536194 891.044495,287.515259 
	C890.714539,302.489075 890.894714,317.474121 890.850281,332.454193 
	C890.845459,334.081604 890.849609,335.708984 890.849609,337.627319 
	C885.208252,337.627319 879.959412,337.627319 873.989624,337.627319 
	C873.989624,326.638367 873.989624,315.569183 873.990051,304.000000 
z"/>
<path fill="#30333B" opacity="1.000000" stroke="none" 
	d="
M365.278229,367.887634 
	C364.347778,368.547333 363.417328,369.207031 362.077362,369.604736 
	C359.192474,367.190521 356.717102,365.038300 353.949585,362.651428 
	C353.452576,362.559692 353.247681,362.702576 353.044922,362.898376 
	C353.047028,362.951263 353.149933,362.926300 353.343262,362.597809 
	C350.339569,358.710541 347.286041,355.008057 343.905609,351.633026 
	C340.463348,348.196350 336.699310,345.081970 333.058533,341.891296 
	C333.040924,341.956146 333.174225,341.973480 333.480469,341.667969 
	C333.215088,340.874725 332.643463,340.386993 332.052307,339.937836 
	C332.032776,339.976410 332.116760,339.955841 332.199463,339.580994 
	C331.873627,339.092224 331.465088,338.978271 331.051208,338.909454 
	C331.045837,338.954559 331.136200,338.945038 331.273682,338.559387 
	C330.960846,338.069397 330.510559,337.965057 330.053955,337.916718 
	C330.047668,337.972748 330.160370,337.968567 330.409485,337.671936 
	C330.126343,336.891449 329.594116,336.407623 329.084106,335.963074 
	C329.106323,336.002319 329.177124,335.946411 329.177124,335.946411 
	C323.172577,327.602234 316.998657,319.373627 311.205505,310.885193 
	C303.664581,299.835754 297.783905,287.966766 295.304504,274.395386 
	C298.024628,273.760742 300.298523,273.570465 302.560211,273.283875 
	C308.382874,272.546143 314.183014,271.537933 320.026764,271.098633 
	C322.933868,270.880127 325.917053,271.673706 329.010254,272.373901 
	C331.423553,281.076843 333.488892,289.477142 335.999542,297.742126 
	C343.398682,322.099823 351.251038,346.288269 365.278229,367.887634 
z"/>
<path fill="#30333B" opacity="1.000000" stroke="none" 
	d="
M397.638397,306.491302 
	C397.315674,308.859558 397.330536,311.335236 396.616669,313.579041 
	C391.061737,331.039490 381.907562,346.626373 370.835632,361.688568 
	C369.852875,361.555664 369.393005,361.200684 368.940857,360.389984 
	C368.883484,356.613190 368.786041,353.292450 368.758423,349.971100 
	C368.573303,327.705811 368.305969,305.440399 368.310913,283.175110 
	C368.311890,278.780273 369.379883,274.385712 370.284851,270.018433 
	C371.084473,270.693115 371.555023,271.340424 371.749939,272.217957 
	C371.176483,277.655548 373.617310,280.753265 378.622742,280.931488 
	C381.898315,281.048126 385.415649,279.743958 388.436035,280.543762 
	C394.751678,282.216248 397.386353,279.231628 399.130127,273.659363 
	C401.849152,267.894287 404.427216,262.448334 407.061340,256.677002 
	C407.781128,255.893494 408.444885,255.435287 409.108673,254.977097 
	C407.446503,266.044098 405.659454,277.094360 404.175995,288.185303 
	C403.455841,293.569336 400.900574,297.697205 397.175781,301.455780 
	C392.962799,305.706940 389.032898,310.238647 384.979919,314.648407 
	C385.479523,315.180206 385.979095,315.712036 386.478668,316.243835 
	C390.055115,313.170258 393.631531,310.096649 397.431152,306.786926 
	C397.654327,306.550812 397.638397,306.491302 397.638397,306.491302 
M383.969177,316.716888 
	C383.756042,317.062164 383.542877,317.407471 383.329742,317.752716 
	C384.029510,317.640350 384.729279,317.527954 386.038818,316.942078 
	C385.994781,316.557220 385.950714,316.172333 385.906677,315.787476 
	C385.432526,315.975372 384.958344,316.163300 383.969177,316.716888 
z"/>
<path fill="#7EACCF" opacity="1.000000" stroke="none" 
	d="
M344.987915,375.565094 
	C344.526978,375.657410 344.066040,375.749725 342.955383,375.562927 
	C339.543182,375.727234 336.780701,376.170685 334.018250,376.614136 
	C331.627136,376.680786 329.235992,376.747406 326.298950,376.368469 
	C319.348389,374.658386 312.943756,373.393860 306.539093,372.129364 
	C306.184906,372.126678 305.830688,372.124023 305.063416,371.720215 
	C303.396820,370.912781 302.143341,370.506500 300.889832,370.100220 
	C300.889832,370.100220 300.960052,370.048462 300.780884,369.799347 
	C299.503876,369.342041 298.406067,369.133881 297.308228,368.925720 
	C291.411835,365.883850 285.515411,362.842010 279.327087,359.276733 
	C279.355011,357.559784 279.674835,356.366211 280.376678,355.161621 
	C282.809265,355.396545 284.859863,355.642578 286.910461,355.888611 
	C286.990906,355.441467 287.071381,354.994324 287.151855,354.547150 
	C282.430939,353.386932 277.710022,352.226685 272.989105,351.066467 
	C270.511017,349.800598 268.146179,348.193909 265.535706,347.326569 
	C252.761047,343.082397 249.034119,331.366058 243.594788,321.067108 
	C243.290375,320.490692 243.714401,319.529572 244.145752,318.435242 
	C246.549194,322.103363 250.207489,320.651978 253.343124,320.597198 
	C257.958588,320.516571 262.568909,320.139832 267.512726,319.949219 
	C269.068085,321.090607 270.423920,322.055603 271.496674,323.270599 
	C291.452911,345.872650 315.714294,361.574677 344.998230,369.661560 
	C344.995239,371.896423 344.991577,373.730774 344.987915,375.565094 
z"/>
<path fill="#96ADC1" opacity="1.000000" stroke="none" 
	d="
M353.005768,201.062408 
	C359.903992,181.667023 373.414917,167.477066 389.474304,155.488358 
	C396.485107,150.254639 404.133545,145.875046 411.822083,141.531372 
	C410.706909,143.533630 409.129578,145.011505 407.840851,146.708542 
	C403.080109,152.977737 398.414734,159.319382 393.715759,165.667450 
	C393.717987,165.701111 393.719360,165.766281 393.428162,165.852173 
	C392.743530,166.619339 392.350067,167.300629 391.703735,168.188507 
	C390.810303,169.541534 390.169739,170.687973 389.301147,172.035919 
	C388.418854,173.496506 387.764557,174.755585 386.935486,176.263016 
	C386.440826,177.244415 386.120911,177.977448 385.540924,178.927597 
	C384.528503,180.764267 383.776123,182.383820 382.833069,184.284363 
	C381.966339,185.998947 381.290253,187.432571 380.387695,189.062561 
	C379.798645,190.175888 379.436127,191.092850 378.950317,192.308807 
	C378.690063,193.016312 378.553131,193.424835 378.205261,194.074463 
	C377.293427,196.204376 376.592529,198.093201 375.690247,200.270142 
	C374.493469,203.320068 373.498077,206.081879 372.297668,209.053101 
	C371.828979,210.185989 371.565277,211.109451 371.147369,212.380951 
	C369.678772,217.154938 368.364380,221.580902 366.901825,226.298523 
	C366.271423,227.790070 365.789185,228.989944 364.986603,229.954483 
	C363.439728,226.487518 362.213165,223.255875 360.780151,219.480209 
	C357.005127,222.766617 354.002563,225.380569 350.982971,227.752533 
	C350.965912,227.510559 350.921478,227.027298 350.954437,226.559723 
	C351.005035,221.050018 351.022675,216.007874 351.197845,210.621277 
	C351.905518,207.205338 352.455627,204.133881 353.005768,201.062408 
z"/>
<path fill="#75ACD6" opacity="1.000000" stroke="none" 
	d="
M308.170929,319.903015 
	C313.996674,324.713837 319.813416,329.535614 325.657990,334.323486 
	C326.526642,335.035065 327.526367,335.586670 328.821289,336.079346 
	C329.177124,335.946411 329.106323,336.002319 328.969543,336.294922 
	C329.275330,337.047882 329.717834,337.508240 330.160370,337.968567 
	C330.160370,337.968567 330.047668,337.972748 330.085144,338.213562 
	C330.460480,338.617920 330.798340,338.781494 331.136200,338.945038 
	C331.136200,338.945038 331.045837,338.954559 331.081329,339.207214 
	C331.450134,339.625214 331.783447,339.790527 332.116760,339.955841 
	C332.116760,339.955841 332.032776,339.976410 331.996094,340.270813 
	C332.364319,341.034668 332.769287,341.504059 333.174225,341.973480 
	C333.174225,341.973480 333.040924,341.956146 333.039307,342.269775 
	C334.639038,347.062988 336.240417,351.542572 337.620209,356.206787 
	C337.269653,356.943665 337.140686,357.495880 336.683289,357.922638 
	C333.595612,356.528168 330.836426,355.259155 327.826050,353.754211 
	C324.062561,351.673767 320.550201,349.829254 316.816895,347.711792 
	C306.055420,339.668488 295.514893,331.898132 284.986908,323.722107 
	C285.797394,322.243866 286.370148,320.696655 287.436829,320.190674 
	C290.263489,318.849823 293.362061,318.094299 296.242065,316.850372 
	C298.994965,315.661285 300.944275,315.958801 301.859070,319.053040 
	C301.813293,319.071960 301.907257,319.036591 302.387878,319.043091 
	C304.573334,319.357635 306.372131,319.630341 308.170929,319.903015 
z"/>
<path fill="#393F47" opacity="1.000000" stroke="none" 
	d="
M365.306946,230.189819 
	C365.789185,228.989944 366.271423,227.790070 367.257507,226.364136 
	C367.869080,227.565979 368.175293,229.012909 368.040741,230.417618 
	C367.805084,232.878098 368.491974,234.266953 371.200623,234.394653 
	C369.959442,240.478394 368.632111,246.135025 367.509644,251.832016 
	C360.929749,285.226868 359.279633,318.712372 366.011414,352.298340 
	C366.597992,355.225098 367.941284,358.000183 368.933105,360.845734 
	C369.393005,361.200684 369.852875,361.555664 370.616638,361.941620 
	C371.282532,363.116608 371.644531,364.260559 372.263000,365.698151 
	C370.755371,366.608093 368.991302,367.224426 366.718323,367.565186 
	C362.037170,354.508392 357.864838,341.727173 354.050232,328.980499 
	C358.868347,330.036621 356.309723,326.464417 356.894653,324.631378 
	C356.576752,322.433044 356.228760,320.634277 356.209961,318.832031 
	C356.109741,309.223114 356.091858,299.613281 356.094055,289.575867 
	C357.250031,269.192535 360.505310,249.570984 365.306946,230.189819 
z"/>
<path fill="#494D57" opacity="1.000000" stroke="none" 
	d="
M293.111115,241.045502 
	C294.389343,233.936798 295.667603,226.828110 297.432678,219.307953 
	C301.236145,217.613327 304.265381,215.956085 307.909698,215.052567 
	C313.106384,213.764145 314.567719,215.089279 316.105743,219.404068 
	C317.084045,222.148392 319.224304,224.478500 320.961426,227.400879 
	C321.678741,232.207031 322.278076,236.606659 322.507812,241.094666 
	C321.765076,241.859055 321.142334,242.505341 321.057739,243.215729 
	C320.279694,249.749817 318.737701,250.758942 312.518402,249.797012 
	C309.895142,249.391266 306.969940,249.699478 304.407806,250.452057 
	C301.256409,251.377686 298.967102,250.912064 296.901672,248.407410 
	C296.116333,247.455093 294.978424,246.793488 293.999878,245.619659 
	C293.702759,243.841782 293.406921,242.443649 293.111115,241.045502 
z"/>
<path fill="#353941" opacity="1.000000" stroke="none" 
	d="
M303.264130,197.261459 
	C305.337738,187.739136 308.233063,178.303497 309.249542,168.669632 
	C310.229950,159.377792 309.271027,149.881332 309.164032,140.474762 
	C308.726166,140.452698 308.288269,140.430634 307.850403,140.408569 
	C308.845215,141.257706 309.917023,142.033493 310.814606,142.975311 
	C311.842072,144.053421 312.714691,145.279037 313.796631,147.074005 
	C317.529266,159.864426 321.119812,172.021454 324.703491,184.595398 
	C325.126495,188.010422 325.556427,191.008530 325.946533,194.426392 
	C326.329926,199.554657 326.753052,204.263138 327.115997,209.352173 
	C327.606659,212.139496 328.157532,214.546265 328.370422,217.057953 
	C326.795105,218.217621 325.557831,219.272369 324.203186,219.952499 
	C322.284302,206.402832 320.482758,193.227783 318.681244,180.052734 
	C318.184784,180.122559 317.688324,180.192383 317.191864,180.262207 
	C317.514648,187.182098 317.837402,194.101990 317.780334,200.987656 
	C312.688385,199.722778 307.976257,198.492126 303.264130,197.261459 
z"/>
<path fill="#A5C9E2" opacity="1.000000" stroke="none" 
	d="
M239.003464,306.997528 
	C234.604691,294.713440 234.633179,282.019562 235.545853,269.252045 
	C235.776474,266.025848 236.156845,262.810333 236.446518,259.815979 
	C241.735321,266.229584 246.906555,272.548523 252.129974,278.824005 
	C260.436157,288.803162 271.182068,295.655853 282.177124,302.186157 
	C283.162445,302.771332 284.064880,303.496124 284.756958,304.514099 
	C280.871338,302.958008 277.402161,300.542816 273.555542,299.255951 
	C268.700226,297.631531 264.943146,291.662476 258.484375,295.009888 
	C257.925751,294.537018 257.570648,294.201996 257.098877,293.544617 
	C253.068176,288.082764 249.154144,282.943268 245.240112,277.803772 
	C244.833313,278.078705 244.426514,278.353607 244.019714,278.628510 
	C246.687881,283.566986 249.356049,288.505463 252.126648,293.757629 
	C252.517914,294.380310 252.806763,294.689331 253.062195,294.976196 
	C253.028778,294.954041 253.081772,294.893921 253.078644,295.273987 
	C254.441193,298.725189 255.806870,301.796326 256.719482,304.905579 
	C251.887726,304.960968 247.499359,304.819733 243.135956,305.086548 
	C241.724792,305.172852 240.379105,306.330170 239.003464,306.997528 
z"/>
<path fill="#545D6B" opacity="1.000000" stroke="none" 
	d="
M410.208282,231.045227 
	C407.752533,233.732758 405.296814,236.420288 402.841064,239.107819 
	C403.141205,239.470825 403.441345,239.833832 403.741486,240.196854 
	C406.034119,238.612289 408.326752,237.027725 411.440308,234.875778 
	C410.883789,240.571915 410.408691,245.434753 409.300415,250.634583 
	C397.781403,250.976196 386.895569,250.980850 376.012024,250.567307 
	C377.295258,244.440186 378.576233,238.731232 380.334778,233.020081 
	C390.611023,232.360321 400.409637,231.702774 410.208282,231.045227 
z"/>
<path fill="#393F47" opacity="1.000000" stroke="none" 
	d="
M292.979858,241.426178 
	C293.406921,242.443649 293.702759,243.841782 293.997986,246.076889 
	C294.000519,249.233215 293.877991,251.560974 294.032135,253.870270 
	C294.384857,259.155548 298.722687,261.576813 303.736328,260.248688 
	C308.445282,259.001282 313.514984,257.827362 318.240692,258.337433 
	C322.053009,258.748932 323.592957,257.328735 325.502686,255.179016 
	C326.763641,261.004456 327.814728,266.506927 328.865814,272.009399 
	C325.917053,271.673706 322.933868,270.880127 320.026764,271.098633 
	C314.183014,271.537933 308.382874,272.546143 302.560211,273.283875 
	C300.298523,273.570465 298.024628,273.760742 295.303619,273.990784 
	C291.677124,263.416016 291.685791,252.647339 292.979858,241.426178 
z"/>
<path fill="#89B9DE" opacity="1.000000" stroke="none" 
	d="
M258.687897,295.147705 
	C264.943146,291.662476 268.700226,297.631531 273.555542,299.255951 
	C277.402161,300.542816 280.871338,302.958008 284.892090,304.828094 
	C293.822876,308.033447 301.553131,312.549377 307.999268,319.613159 
	C306.372131,319.630341 304.573334,319.357635 302.387268,319.042480 
	C302.000000,319.000000 301.998779,318.998779 301.998779,318.998779 
	C300.944275,315.958801 298.994965,315.661285 296.242065,316.850372 
	C293.362061,318.094299 290.263489,318.849823 287.436829,320.190674 
	C286.370148,320.696655 285.797394,322.243866 284.682404,323.573212 
	C275.806183,314.269226 267.247040,304.708466 258.687897,295.147705 
z"/>
<path fill="#798B9D" opacity="1.000000" stroke="none" 
	d="
M411.832733,189.021042 
	C411.897003,195.376556 411.961304,201.732056 411.485504,208.545502 
	C402.936371,208.667145 394.927338,208.330841 386.957092,207.609009 
	C389.245483,200.835327 391.495117,194.447159 394.174072,188.052185 
	C400.346497,188.370621 406.089600,188.695831 411.832733,189.021042 
z"/>
<path fill="#559AC7" opacity="1.000000" stroke="none" 
	d="
M1030.505859,303.595337 
	C1030.495605,315.023743 1030.495605,325.992188 1030.495605,337.464478 
	C1025.207642,337.464478 1020.365723,337.464478 1015.167725,337.464478 
	C1015.167725,294.490601 1015.167725,251.599457 1015.167725,208.063812 
	C1019.405151,208.063812 1023.527893,207.858246 1027.603516,208.205185 
	C1028.651001,208.294373 1029.706787,210.025055 1030.452148,211.196640 
	C1030.831177,211.792297 1030.534424,212.821320 1030.534302,213.654419 
	C1030.528931,243.481400 1030.522461,273.308380 1030.505859,303.595337 
M1028.985352,282.500000 
	C1028.983643,260.175385 1028.817261,237.848602 1029.107910,215.527802 
	C1029.172607,210.566010 1027.334473,209.640778 1023.056519,209.902557 
	C1019.244385,210.135818 1015.808533,209.056381 1015.858765,215.398575 
	C1016.161987,253.714493 1016.002258,292.034058 1016.015320,330.352417 
	C1016.015930,332.116699 1016.188049,333.880920 1016.282227,335.681824 
	C1018.654480,335.908905 1020.488342,335.954529 1022.271545,336.278595 
	C1028.551880,337.419922 1028.968994,337.143250 1028.975464,330.981445 
	C1028.992065,315.154297 1028.983643,299.327148 1028.985352,282.500000 
z"/>
<path fill="#8397AA" opacity="1.000000" stroke="none" 
	d="
M327.176208,208.971619 
	C326.753052,204.263138 326.329926,199.554657 326.304688,194.272278 
	C330.723175,193.840729 334.963165,193.227936 338.708984,194.316132 
	C343.416656,195.683762 345.787354,194.576050 346.924194,190.048553 
	C348.701172,193.693863 350.478180,197.339172 352.630463,201.023453 
	C352.455627,204.133881 351.905518,207.205338 350.808716,210.627716 
	C348.599548,210.365494 346.957214,209.295792 345.270966,209.221375 
	C339.247437,208.955536 333.209015,209.027481 327.176208,208.971619 
z"/>
<path fill="#434851" opacity="1.000000" stroke="none" 
	d="
M303.111298,197.530823 
	C307.976257,198.492126 312.688385,199.722778 317.934937,201.380981 
	C319.260742,210.203796 320.052094,218.599075 320.843475,226.994354 
	C319.224304,224.478500 317.084045,222.148392 316.105743,219.404068 
	C314.567719,215.089279 313.106384,213.764145 307.909698,215.052567 
	C304.265381,215.956085 301.236145,217.613327 297.582092,218.944290 
	C299.149231,211.928116 301.053833,204.864151 303.111298,197.530823 
z"/>
<path fill="#6E7E8F" opacity="1.000000" stroke="none" 
	d="
M386.918274,207.994537 
	C394.927338,208.330841 402.936371,208.667145 411.403809,209.008545 
	C411.892181,213.045837 411.922150,217.078033 411.414673,221.561462 
	C402.939514,221.689133 395.003265,221.311005 387.062653,221.092758 
	C385.647522,221.053864 384.214142,221.677979 382.845734,221.592926 
	C384.240936,216.791458 385.579620,212.393005 386.918274,207.994537 
z"/>
<path fill="#89B9DE" opacity="1.000000" stroke="none" 
	d="
M239.012482,307.384644 
	C240.379105,306.330170 241.724792,305.172852 243.135956,305.086548 
	C247.499359,304.819733 251.887726,304.960968 256.967651,305.124512 
	C260.839783,310.166626 264.010590,315.027954 267.181427,319.889221 
	C262.568909,320.139832 257.958588,320.516571 253.343124,320.597198 
	C250.207489,320.651978 246.549194,322.103363 244.103210,318.104340 
	C242.150024,314.647705 240.585754,311.209717 239.012482,307.384644 
z"/>
<path fill="#64707E" opacity="1.000000" stroke="none" 
	d="
M382.789185,221.995956 
	C384.214142,221.677979 385.647522,221.053864 387.062653,221.092758 
	C395.003265,221.311005 402.939514,221.689133 411.320099,222.017273 
	C411.476654,224.922104 411.190338,227.822327 410.556152,230.883911 
	C400.409637,231.702774 390.611023,232.360321 380.381622,232.616669 
	C380.896973,228.808975 381.843079,225.402466 382.789185,221.995956 
z"/>
<path fill="#90A4B7" opacity="1.000000" stroke="none" 
	d="
M346.903870,189.693634 
	C345.787354,194.576050 343.416656,195.683762 338.708984,194.316132 
	C334.963165,193.227936 330.723175,193.840729 326.344452,193.852509 
	C325.556427,191.008530 325.126495,188.010422 325.020386,184.369446 
	C326.464600,180.690887 327.585083,177.655197 328.565704,174.998337 
	C332.475372,176.312943 336.337738,177.611649 340.200134,178.910370 
	C342.427948,182.386505 344.655731,185.862625 346.903870,189.693634 
z"/>
<path fill="#96ADC1" opacity="1.000000" stroke="none" 
	d="
M340.118561,178.567657 
	C336.337738,177.611649 332.475372,176.312943 328.565704,174.998337 
	C327.585083,177.655197 326.464600,180.690887 325.027252,183.952530 
	C321.119812,172.021454 317.529266,159.864426 313.993317,147.340759 
	C317.405426,150.250992 321.123596,153.237778 324.043213,156.866959 
	C329.614960,163.792831 334.731476,171.084885 340.118561,178.567657 
z"/>
<path fill="#90A4B7" opacity="1.000000" stroke="none" 
	d="
M414.839539,158.951492 
	C414.758545,160.051041 414.677551,161.150574 414.189880,162.700714 
	C413.498993,163.700058 413.214752,164.248795 412.930481,164.797546 
	C412.903625,168.604599 412.876709,172.411636 412.329773,176.622101 
	C407.491943,177.015228 403.174225,177.004944 398.941864,176.626099 
	C399.724030,173.814590 400.420807,171.371674 401.373657,168.766312 
	C403.064026,165.053192 404.498291,161.502502 405.966492,157.973465 
	C406.000427,157.995132 405.931610,157.957932 406.230103,157.846130 
	C406.668365,157.138336 406.808105,156.542374 406.974274,155.970490 
	C407.000702,155.994598 406.934692,155.967422 407.191833,155.900864 
	C407.620941,155.536301 407.792908,155.238312 407.954865,154.969482 
	C407.944855,154.998627 407.921875,154.941391 408.208374,154.983124 
	C408.687805,155.019821 408.880737,155.014786 409.427307,155.013489 
	C411.467163,156.328629 413.153381,157.640060 414.839539,158.951492 
z"/>
<path fill="#494D57" opacity="1.000000" stroke="none" 
	d="
M376.009766,250.985489 
	C386.895569,250.980850 397.781403,250.976196 409.157166,250.967133 
	C409.625153,252.069107 409.603149,253.175507 409.344910,254.629486 
	C408.444885,255.435287 407.781128,255.893494 406.592102,256.677429 
	C395.831665,257.003204 385.596466,257.003204 374.804047,257.003204 
	C375.320160,254.427368 375.664978,252.706436 376.009766,250.985489 
z"/>
<path fill="#8397AA" opacity="1.000000" stroke="none" 
	d="
M398.856445,176.994644 
	C403.174225,177.004944 407.491943,177.015228 412.210480,177.032562 
	C412.415314,180.740280 412.219360,184.440918 411.928070,188.581299 
	C406.089600,188.695831 400.346497,188.370621 394.265778,187.660248 
	C394.526245,185.525284 395.124298,183.775452 395.967651,181.902161 
	C397.094116,180.184021 397.975281,178.589325 398.856445,176.994644 
z"/>
<path fill="#84A7C3" opacity="1.000000" stroke="none" 
	d="
M337.011719,358.048096 
	C337.140686,357.495880 337.269653,356.943665 337.902863,356.424927 
	C343.321381,358.614410 348.235657,360.770355 353.149933,362.926300 
	C353.149933,362.926300 353.047028,362.951263 353.087646,363.159180 
	C353.499420,363.206787 353.870575,363.046448 354.241730,362.886078 
	C356.717102,365.038300 359.192474,367.190521 361.718414,369.666199 
	C361.081726,370.268738 360.394440,370.547791 359.094849,370.929443 
	C355.658783,370.927307 356.177521,372.417572 357.033386,374.068726 
	C355.456390,375.063446 353.879425,376.058167 352.017120,377.131927 
	C350.654572,373.097168 347.816803,375.940918 345.373779,375.632446 
	C344.991577,373.730774 344.995239,371.896423 345.373596,369.643311 
	C348.485260,369.923523 351.222260,370.622498 353.959229,371.321472 
	C354.153870,370.741547 354.348480,370.161652 354.543121,369.581726 
	C349.681213,367.224274 344.819305,364.866821 339.966522,362.112671 
	C338.987671,360.493317 337.999695,359.270721 337.011719,358.048096 
z"/>
<path fill="#4C545E" opacity="1.000000" stroke="none" 
	d="
M393.713501,165.633820 
	C398.414734,159.319382 403.080109,152.977737 407.840851,146.708542 
	C409.129578,145.011505 410.706909,143.533630 412.178955,141.620575 
	C412.206116,141.285965 412.563293,141.091736 413.195862,141.075592 
	C415.033203,141.036041 416.237976,141.012650 417.202576,141.257019 
	C413.961456,145.680023 410.960602,149.835266 407.869141,154.224991 
	C407.826294,154.620102 407.874084,154.780746 407.921875,154.941391 
	C407.921875,154.941391 407.944855,154.998627 407.664490,154.976105 
	C407.234314,155.291550 407.084503,155.629486 406.934692,155.967422 
	C406.934692,155.967422 407.000702,155.994598 406.676758,156.097687 
	C406.212402,156.786499 406.072021,157.372223 405.931610,157.957932 
	C405.931610,157.957932 406.000427,157.995132 405.623535,157.994446 
	C403.579193,160.151184 401.911682,162.308594 400.058594,164.172775 
	C397.819824,164.464310 395.766693,165.049057 393.713501,165.633820 
z"/>
<path fill="#96ADC1" opacity="1.000000" stroke="none" 
	d="
M407.959747,153.990509 
	C410.960602,149.835266 413.961456,145.680023 417.498657,141.221756 
	C419.646576,139.933655 421.258118,138.948593 422.869690,137.963516 
	C420.370575,144.792801 417.871460,151.622070 415.105957,158.701416 
	C413.153381,157.640060 411.467163,156.328629 409.302032,154.783630 
	C408.535309,154.363556 408.247528,154.177032 407.959747,153.990509 
z"/>
<path fill="#559AC7" opacity="1.000000" stroke="none" 
	d="
M221.206940,368.545044 
	C220.342346,368.513885 219.334671,367.978027 218.298538,367.915771 
	C217.588211,367.873108 216.838303,368.489288 216.134796,369.114868 
	C211.272202,364.025452 206.380905,358.632080 201.489594,353.238708 
	C201.834854,352.918884 202.180115,352.599060 202.525360,352.279266 
	C208.700821,357.600281 214.876266,362.921295 221.206940,368.545044 
z"/>
<path fill="#EDF7FA" opacity="1.000000" stroke="none" 
	d="
M272.990784,351.402557 
	C277.710022,352.226685 282.430939,353.386932 287.151855,354.547150 
	C287.071381,354.994324 286.990906,355.441467 286.910461,355.888611 
	C284.859863,355.642578 282.809265,355.396545 280.006531,355.069092 
	C277.164612,354.353058 275.074829,353.718475 272.985046,353.083862 
	C272.987518,352.635468 272.989990,352.187073 272.990784,351.402557 
z"/>
<path fill="#84A7C3" opacity="1.000000" stroke="none" 
	d="
M306.804352,372.405762 
	C312.943756,373.393860 319.348389,374.658386 325.863129,376.256653 
	C319.671997,375.287689 313.370819,373.984955 306.804352,372.405762 
z"/>
<path fill="#96ADC1" opacity="1.000000" stroke="none" 
	d="
M272.666260,353.079224 
	C275.074829,353.718475 277.164612,354.353058 279.624512,355.080139 
	C279.674835,356.366211 279.355011,357.559784 279.037476,359.048645 
	C276.135651,357.583069 273.231476,355.822174 269.438446,353.522308 
	C271.175903,353.254883 271.761719,353.164734 272.666260,353.079224 
z"/>
<path fill="#798B9D" opacity="1.000000" stroke="none" 
	d="
M422.953979,137.739594 
	C421.258118,138.948593 419.646576,139.933655 417.738892,140.953995 
	C416.237976,141.012650 415.033203,141.036041 413.386688,141.005585 
	C416.052795,139.318390 419.160583,137.685028 422.613770,136.372528 
	C422.959106,136.693390 423.047180,137.037186 423.047180,137.037186 
	C423.047180,137.037186 423.038300,137.515656 422.953979,137.739594 
z"/>
<path fill="#84A7C3" opacity="1.000000" stroke="none" 
	d="
M334.435486,376.707550 
	C336.780701,376.170685 339.543182,375.727234 342.602631,375.517578 
	C340.217316,376.101257 337.535034,376.451111 334.435486,376.707550 
z"/>
<path fill="#559AC7" opacity="1.000000" stroke="none" 
	d="
M217.728638,371.125183 
	C219.089203,371.934723 220.523224,373.035522 222.011047,374.457031 
	C220.643921,373.657318 219.223007,372.536896 217.728638,371.125183 
z"/>
<path fill="#84A7C3" opacity="1.000000" stroke="none" 
	d="
M301.062988,370.385315 
	C302.143341,370.506500 303.396820,370.912781 304.813934,371.621094 
	C303.730408,371.505585 302.483307,371.087982 301.062988,370.385315 
z"/>
<path fill="#96ADC1" opacity="1.000000" stroke="none" 
	d="
M423.289185,136.940155 
	C423.047180,137.037186 422.959106,136.693390 422.977966,136.517731 
	C423.476257,136.174667 423.955688,136.007263 424.435089,135.839874 
	C424.133820,136.174286 423.832520,136.508713 423.289185,136.940155 
z"/>
<path fill="#96ADC1" opacity="1.000000" stroke="none" 
	d="
M413.210388,164.718307 
	C413.214752,164.248795 413.498993,163.700058 413.993774,163.066467 
	C413.966309,163.534103 413.728302,164.086594 413.210388,164.718307 
z"/>
<path fill="#84A7C3" opacity="1.000000" stroke="none" 
	d="
M297.528870,369.165833 
	C298.406067,369.133881 299.503876,369.342041 300.783722,369.842865 
	C299.893677,369.892303 298.821594,369.649109 297.528870,369.165833 
z"/>
<path fill="#96ADC1" opacity="1.000000" stroke="none" 
	d="
M426.212646,133.596481 
	C425.989105,133.627365 425.866943,133.583755 425.744781,133.540146 
	C425.934540,133.534088 426.124298,133.528030 426.212646,133.596481 
z"/>
<path fill="#559AC7" opacity="1.000000" stroke="none" 
	d="
M216.685638,370.156067 
	C216.760361,370.081604 216.834961,370.210144 216.870605,370.217285 
	C216.906250,370.224457 216.610916,370.230530 216.685638,370.156067 
z"/>
<path fill="#84A7C3" opacity="1.000000" stroke="none" 
	d="
M350.822174,377.637268 
	C350.849030,377.859650 350.671967,377.970581 350.302734,378.038513 
	C350.218903,377.790070 350.388153,377.633514 350.822174,377.637268 
z"/>
<path fill="#30333B" opacity="1.000000" stroke="none" 
	d="
M397.674683,306.551453 
	C397.921356,306.575653 398.147705,306.599213 398.374023,306.622772 
	C398.218781,306.694885 398.063538,306.766998 397.773346,306.665222 
	C397.638397,306.491302 397.654327,306.550812 397.674683,306.551453 
z"/>
<path fill="#559AC7" opacity="1.000000" stroke="none" 
	d="
M224.660370,370.869873 
	C224.525986,370.967468 224.371338,370.875458 224.130402,370.672485 
	C224.265686,370.438354 224.464355,370.477936 224.660370,370.869873 
z"/>
<path fill="#559AC7" opacity="1.000000" stroke="none" 
	d="
M223.296570,369.912170 
	C223.240585,369.934662 223.304672,369.885071 223.317810,369.909363 
	C223.330948,369.933655 223.352554,369.889648 223.296570,369.912170 
z"/>
<path fill="#FBFBFC" opacity="1.000000" stroke="none" 
	d="
M806.766724,326.067322 
	C800.559692,324.844269 794.482727,324.372040 789.150879,322.128937 
	C783.453186,319.731995 781.469482,314.131226 781.926025,307.971191 
	C782.357300,302.152466 785.268616,297.806763 790.650513,295.651093 
	C793.987183,294.314636 797.656860,293.233032 801.210510,293.123596 
	C811.819580,292.796967 822.445251,293.006317 832.727600,293.006317 
	C836.511780,308.348022 828.101379,324.737549 806.766724,326.067322 
z"/>
<path fill="#F2F3F4" opacity="1.000000" stroke="none" 
	d="
M320.961426,227.400879 
	C320.052094,218.599075 319.260742,210.203796 318.314789,201.415192 
	C317.837402,194.101990 317.514648,187.182098 317.191864,180.262207 
	C317.688324,180.192383 318.184784,180.122559 318.681244,180.052734 
	C320.482758,193.227783 322.284302,206.402832 324.180359,220.375931 
	C327.233551,235.119186 330.192200,249.064392 333.139343,263.396423 
	C336.808289,276.515686 340.488678,289.248169 344.158813,302.356476 
	C347.329895,311.470184 350.511200,320.208099 353.692505,328.945984 
	C357.864838,341.727173 362.037170,354.508392 366.382568,367.654114 
	C366.346832,367.955963 366.137970,367.893280 365.603668,367.859131 
	C351.251038,346.288269 343.398682,322.099823 335.999542,297.742126 
	C333.488892,289.477142 331.423553,281.076843 329.010254,272.373901 
	C327.814728,266.506927 326.763641,261.004456 325.504883,254.772461 
	C324.490601,249.697403 323.684021,245.351837 322.877441,241.006271 
	C322.278076,236.606659 321.678741,232.207031 320.961426,227.400879 
z"/>
<path fill="#7EACCF" opacity="1.000000" stroke="none" 
	d="
M357.311157,373.907715 
	C356.177521,372.417572 355.658783,370.927307 358.841370,371.064697 
	C358.663116,371.980438 358.126038,372.863586 357.311157,373.907715 
z"/>
<path fill="#FEFFFF" opacity="1.000000" stroke="none" 
	d="
M353.343262,362.597809 
	C348.235657,360.770355 343.321381,358.614410 338.124451,356.240295 
	C336.240417,351.542572 334.639038,347.062988 333.056915,342.204926 
	C336.699310,345.081970 340.463348,348.196350 343.905609,351.633026 
	C347.286041,355.008057 350.339569,358.710541 353.343262,362.597809 
z"/>
<path fill="#FEFFFF" opacity="1.000000" stroke="none" 
	d="
M330.409485,337.671936 
	C329.717834,337.508240 329.275330,337.047882 328.947327,336.255676 
	C329.594116,336.407623 330.126343,336.891449 330.409485,337.671936 
z"/>
<path fill="#FEFFFF" opacity="1.000000" stroke="none" 
	d="
M333.480469,341.667969 
	C332.769287,341.504059 332.364319,341.034668 332.015625,340.232239 
	C332.643463,340.386993 333.215088,340.874725 333.480469,341.667969 
z"/>
<path fill="#FEFFFF" opacity="1.000000" stroke="none" 
	d="
M353.949585,362.651428 
	C353.870575,363.046448 353.499420,363.206787 353.085510,363.106293 
	C353.247681,362.702576 353.452576,362.559692 353.949585,362.651428 
z"/>
<path fill="#FEFFFF" opacity="1.000000" stroke="none" 
	d="
M331.273682,338.559387 
	C330.798340,338.781494 330.460480,338.617920 330.091431,338.157532 
	C330.510559,337.965057 330.960846,338.069397 331.273682,338.559387 
z"/>
<path fill="#FEFFFF" opacity="1.000000" stroke="none" 
	d="
M332.199463,339.580994 
	C331.783447,339.790527 331.450134,339.625214 331.086700,339.162109 
	C331.465088,338.978271 331.873627,339.092224 332.199463,339.580994 
z"/>
<path fill="#F2F3F4" opacity="1.000000" stroke="none" 
	d="
M368.940857,360.389984 
	C367.941284,358.000183 366.597992,355.225098 366.011414,352.298340 
	C359.279633,318.712372 360.929749,285.226868 367.509644,251.832016 
	C368.632111,246.135025 369.959442,240.478394 371.411987,234.086319 
	C377.058441,211.326019 384.936218,190.275742 397.229370,171.029358 
	C397.763367,171.492004 398.012268,171.824295 398.149353,172.496887 
	C396.700806,175.894897 395.364105,178.952591 393.861328,182.326538 
	C384.953735,202.601410 378.458557,223.282608 374.199341,244.634659 
	C372.856384,251.367294 372.319275,258.260651 371.034424,265.080322 
	C370.491028,266.046265 370.326538,267.012360 370.047974,268.303314 
	C369.941193,269.082489 369.948517,269.536743 369.955811,269.991028 
	C369.379883,274.385712 368.311890,278.780273 368.310913,283.175110 
	C368.305969,305.440399 368.573303,327.705811 368.758423,349.971100 
	C368.786041,353.292450 368.883484,356.613190 368.940857,360.389984 
z"/>
<path fill="#434851" opacity="1.000000" stroke="none" 
	d="
M371.413361,265.080475 
	C372.319275,258.260651 372.856384,251.367294 374.199341,244.634659 
	C378.458557,223.282608 384.953735,202.601410 394.285156,182.320862 
	C395.157471,182.007812 395.439880,182.016708 395.722351,182.025635 
	C395.124298,183.775452 394.526245,185.525284 393.836487,187.667053 
	C391.495117,194.447159 389.245483,200.835327 386.957092,207.609024 
	C385.579620,212.393005 384.240936,216.791458 382.845734,221.592926 
	C381.843079,225.402466 380.896973,228.808975 379.904053,232.618881 
	C378.576233,238.731232 377.295258,244.440186 376.012024,250.567307 
	C375.664978,252.706436 375.320160,254.427368 374.804047,257.003204 
	C385.596466,257.003204 395.831665,257.003204 406.536072,257.002777 
	C404.427216,262.448334 401.849152,267.894287 398.662720,273.663940 
	C389.378113,273.320953 380.701843,272.654358 372.025543,271.987732 
	C371.555023,271.340424 371.084473,270.693115 370.284851,270.018433 
	C369.948517,269.536743 369.941193,269.082489 370.424255,268.218262 
	C371.080872,266.899048 371.247101,265.989746 371.413361,265.080475 
z"/>
<path fill="#353941" opacity="1.000000" stroke="none" 
	d="
M371.749939,272.217957 
	C380.701843,272.654358 389.378113,273.320953 398.521820,273.983002 
	C397.386353,279.231628 394.751678,282.216248 388.436035,280.543762 
	C385.415649,279.743958 381.898315,281.048126 378.622742,280.931488 
	C373.617310,280.753265 371.176483,277.655548 371.749939,272.217957 
z"/>
<path fill="#FEFFFF" opacity="1.000000" stroke="none" 
	d="
M385.429047,317.415588 
	C384.729279,317.527954 384.029510,317.640350 383.329742,317.752747 
	C383.542877,317.407471 383.756042,317.062164 384.455627,316.806580 
	C385.104431,317.069397 385.266754,317.242493 385.429047,317.415588 
z"/>
<path fill="#FEFFFF" opacity="1.000000" stroke="none" 
	d="
M384.713135,316.623749 
	C384.958344,316.163300 385.432526,315.975372 385.906677,315.787476 
	C385.950714,316.172333 385.994781,316.557220 385.733948,317.178833 
	C385.266754,317.242493 385.104431,317.069397 384.713135,316.623749 
z"/>
<path fill="#EDF7FA" opacity="1.000000" stroke="none" 
	d="
M339.957397,362.509369 
	C344.819305,364.866821 349.681213,367.224274 354.543121,369.581726 
	C354.348480,370.161652 354.153870,370.741547 353.959229,371.321472 
	C351.222260,370.622498 348.485260,369.923523 345.372925,369.242767 
	C315.714294,361.574677 291.452911,345.872650 271.496674,323.270599 
	C270.423920,322.055603 269.068085,321.090607 267.512726,319.949219 
	C264.010590,315.027954 260.839783,310.166626 257.420746,305.086365 
	C255.806870,301.796326 254.441193,298.725189 253.262604,295.377502 
	C253.449677,295.100952 253.854568,295.221405 254.021820,295.519470 
	C270.419159,321.203217 291.954132,340.626007 319.404053,353.867249 
	C322.428741,355.122467 325.237030,356.153839 328.281433,357.424835 
	C332.330811,359.279449 336.144104,360.894409 339.957397,362.509369 
z"/>
<path fill="#84A7C3" opacity="1.000000" stroke="none" 
	d="
M364.986603,229.954483 
	C360.505310,249.570984 357.250031,269.192535 355.788818,289.861389 
	C355.284210,294.009064 354.869659,297.457367 355.052246,300.873718 
	C355.260468,304.770813 353.709045,306.397827 349.690918,305.787781 
	C349.294830,304.345123 349.117065,303.178864 349.213013,301.783020 
	C348.964813,298.363708 348.442871,295.174042 347.959473,291.653107 
	C347.988983,290.877441 347.980042,290.433044 348.144196,289.906189 
	C348.193573,289.557068 348.069824,289.290436 347.918762,288.608093 
	C347.615112,285.121918 347.338776,282.051453 347.112091,278.527344 
	C347.399109,271.393555 347.636475,264.713379 347.938416,257.602386 
	C348.599640,250.469009 349.196289,243.766495 349.854736,236.633820 
	C350.277710,233.467270 350.638855,230.730896 351.000000,227.994507 
	C354.002563,225.380569 357.005127,222.766617 360.780151,219.480209 
	C362.213165,223.255875 363.439728,226.487518 364.986603,229.954483 
z"/>
<path fill="#434851" opacity="1.000000" stroke="none" 
	d="
M396.944275,170.899002 
	C384.936218,190.275742 377.058441,211.326019 371.420502,233.677856 
	C368.491974,234.266953 367.805084,232.878098 368.040741,230.417618 
	C368.175293,229.012909 367.869080,227.565979 367.405640,226.072449 
	C368.364380,221.580902 369.678772,217.154938 371.460388,212.325302 
	C372.119324,210.895645 372.311005,209.869659 372.502686,208.843689 
	C373.498077,206.081879 374.493469,203.320068 376.043945,200.231537 
	C378.327759,198.217117 380.850464,196.767075 378.416199,193.833374 
	C378.553131,193.424835 378.690063,193.016312 379.281189,192.268326 
	C380.028290,190.907974 380.321259,189.887085 380.614197,188.866180 
	C381.290253,187.432571 381.966339,185.998947 383.173645,184.248199 
	C386.300171,182.952332 387.608185,181.456787 385.800964,178.710480 
	C386.120911,177.977448 386.440826,177.244415 387.285736,176.219604 
	C389.487305,175.026733 392.598755,174.727997 389.529144,171.834412 
	C390.169739,170.687973 390.810303,169.541534 392.044708,168.147980 
	C392.998810,167.189346 393.359100,166.477814 393.719360,165.766281 
	C393.719360,165.766281 393.717987,165.701111 393.715759,165.667465 
	C395.766693,165.049057 397.819824,164.464310 399.939636,164.469727 
	C398.985596,167.006271 397.964935,168.952637 396.944275,170.899002 
z"/>
<path fill="#798B9D" opacity="1.000000" stroke="none" 
	d="
M327.115997,209.352173 
	C333.209015,209.027481 339.247437,208.955536 345.270966,209.221375 
	C346.957214,209.295792 348.599548,210.365494 350.651184,210.972183 
	C351.022675,216.007874 351.005035,221.050018 350.595093,226.505951 
	C346.635010,225.946503 343.115967,224.656403 339.484406,224.097122 
	C336.403961,223.622711 333.193481,223.992447 330.001709,223.592148 
	C329.544739,221.114761 329.126587,219.033905 328.708435,216.953049 
	C328.157532,214.546265 327.606659,212.139496 327.115997,209.352173 
z"/>
<path fill="#6E7E8F" opacity="1.000000" stroke="none" 
	d="
M330.040527,223.988678 
	C333.193481,223.992447 336.403961,223.622711 339.484406,224.097122 
	C343.115967,224.656403 346.635010,225.946503 350.562134,226.973511 
	C350.921478,227.027298 350.965912,227.510559 350.982971,227.752533 
	C350.638855,230.730896 350.277710,233.467270 349.427704,236.614304 
	C343.559418,237.397385 338.179993,237.769821 332.560181,237.834213 
	C331.560089,233.013657 330.800323,228.501160 330.040527,223.988678 
z"/>
<path fill="#4C545E" opacity="1.000000" stroke="none" 
	d="
M378.205292,194.074463 
	C380.850464,196.767075 378.327759,198.217117 376.245300,199.943420 
	C376.592529,198.093201 377.293427,196.204376 378.205292,194.074463 
z"/>
<path fill="#4C545E" opacity="1.000000" stroke="none" 
	d="
M385.540924,178.927597 
	C387.608185,181.456787 386.300171,182.952332 383.364319,183.967224 
	C383.776123,182.383820 384.528503,180.764267 385.540924,178.927597 
z"/>
<path fill="#4C545E" opacity="1.000000" stroke="none" 
	d="
M389.301147,172.035919 
	C392.598755,174.727997 389.487305,175.026733 387.460449,175.971222 
	C387.764557,174.755585 388.418854,173.496506 389.301147,172.035919 
z"/>
<path fill="#4C545E" opacity="1.000000" stroke="none" 
	d="
M372.297668,209.053101 
	C372.311005,209.869659 372.119324,210.895645 371.614624,211.977264 
	C371.565277,211.109451 371.828979,210.185989 372.297668,209.053101 
z"/>
<path fill="#4C545E" opacity="1.000000" stroke="none" 
	d="
M380.387695,189.062561 
	C380.321259,189.887085 380.028290,190.907974 379.404480,191.969345 
	C379.436127,191.092850 379.798645,190.175888 380.387695,189.062561 
z"/>
<path fill="#4C545E" opacity="1.000000" stroke="none" 
	d="
M393.428162,165.852173 
	C393.359100,166.477814 392.998810,167.189346 392.297577,167.941406 
	C392.350067,167.300629 392.743530,166.619339 393.428162,165.852173 
z"/>
<path fill="#3A4756" opacity="1.000000" stroke="none" 
	d="
M319.187683,353.643402 
	C291.954132,340.626007 270.419159,321.203217 254.247803,295.213104 
	C255.276230,294.361481 256.245911,294.114227 257.215576,293.866974 
	C257.570648,294.201996 257.925751,294.537018 258.484375,295.009888 
	C267.247040,304.708466 275.806183,314.269226 284.669830,323.978882 
	C295.514893,331.898132 306.055420,339.668488 316.849792,348.084595 
	C317.798309,350.368011 318.493011,352.005707 319.187683,353.643402 
z"/>
<path fill="#545D6B" opacity="1.000000" stroke="none" 
	d="
M319.404053,353.867249 
	C318.493011,352.005707 317.798309,350.368011 317.070740,348.357544 
	C320.550201,349.829254 324.062561,351.673767 327.806213,354.152771 
	C328.040131,355.586578 328.042725,356.385895 328.045349,357.185211 
	C325.237030,356.153839 322.428741,355.122467 319.404053,353.867249 
z"/>
<path fill="#6E7E8F" opacity="1.000000" stroke="none" 
	d="
M328.281433,357.424835 
	C328.042725,356.385895 328.040131,355.586578 328.057373,354.388733 
	C330.836426,355.259155 333.595612,356.528168 336.683289,357.922638 
	C337.999695,359.270721 338.987671,360.493317 339.966522,362.112671 
	C336.144104,360.894409 332.330811,359.279449 328.281433,357.424835 
z"/>
<path fill="#89B9DE" opacity="1.000000" stroke="none" 
	d="
M302.000610,319.000610 
	C301.907257,319.036591 301.813293,319.071960 301.859070,319.053040 
	C301.998779,318.998779 302.000000,319.000000 302.000610,319.000610 
z"/>
<path fill="#494D57" opacity="1.000000" stroke="none" 
	d="
M348.939301,302.012604 
	C349.117065,303.178864 349.294830,304.345123 349.683014,306.200226 
	C350.888763,310.721313 351.620056,314.650146 352.973816,318.351288 
	C353.850952,320.749359 355.637451,322.814819 357.016479,325.029327 
	C356.309723,326.464417 358.868347,330.036621 354.050232,328.980499 
	C350.511200,320.208099 347.329895,311.470184 344.485565,302.320038 
	C345.867065,301.602783 346.911591,301.297821 348.083618,301.198792 
	C348.376099,301.700500 348.618835,301.903137 348.939301,302.012604 
z"/>
<path fill="#798B9D" opacity="1.000000" stroke="none" 
	d="
M356.894653,324.631378 
	C355.637451,322.814819 353.850952,320.749359 352.973816,318.351288 
	C351.620056,314.650146 350.888763,310.721313 349.901367,306.476624 
	C353.709045,306.397827 355.260468,304.770813 355.052246,300.873718 
	C354.869659,297.457367 355.284210,294.009064 355.740234,290.289337 
	C356.091858,299.613281 356.109741,309.223114 356.209961,318.832031 
	C356.228760,320.634277 356.576752,322.433044 356.894653,324.631378 
z"/>
<path fill="#434851" opacity="1.000000" stroke="none" 
	d="
M322.507812,241.094666 
	C323.684021,245.351837 324.490601,249.697403 325.294983,254.449524 
	C323.592957,257.328735 322.053009,258.748932 318.240692,258.337433 
	C313.514984,257.827362 308.445282,259.001282 303.736328,260.248688 
	C298.722687,261.576813 294.384857,259.155548 294.032135,253.870270 
	C293.877991,251.560974 294.000519,249.233215 293.999329,246.456619 
	C294.978424,246.793488 296.116333,247.455093 296.901672,248.407410 
	C298.967102,250.912064 301.256409,251.377686 304.407806,250.452057 
	C306.969940,249.699478 309.895142,249.391266 312.518402,249.797012 
	C318.737701,250.758942 320.279694,249.749817 321.057739,243.215729 
	C321.142334,242.505341 321.765076,241.859055 322.507812,241.094666 
z"/>
<path fill="#434851" opacity="1.000000" stroke="none" 
	d="
M330.001709,223.592133 
	C330.800323,228.501160 331.560089,233.013657 332.598969,238.256683 
	C333.932587,244.648178 334.987091,250.309158 336.027588,256.360413 
	C336.333710,258.504944 336.653839,260.259125 336.665588,262.144043 
	C335.288422,262.519684 334.219635,262.764648 333.150818,263.009613 
	C330.192200,249.064392 327.233551,235.119186 324.297729,220.750549 
	C325.557831,219.272369 326.795105,218.217621 328.370422,217.057953 
	C329.126587,219.033905 329.544739,221.114761 330.001709,223.592133 
z"/>
<path fill="#4C545E" opacity="1.000000" stroke="none" 
	d="
M257.098877,293.544617 
	C256.245911,294.114227 255.276230,294.361481 254.080566,294.915039 
	C253.854568,295.221405 253.449677,295.100952 253.265717,294.997437 
	C253.081772,294.893921 253.028778,294.954041 252.964478,294.667725 
	C252.608200,294.068909 252.316208,293.756409 252.024216,293.443939 
	C249.356049,288.505463 246.687881,283.566986 244.019714,278.628510 
	C244.426514,278.353607 244.833313,278.078705 245.240112,277.803772 
	C249.154144,282.943268 253.068176,288.082764 257.098877,293.544617 
z"/>
<path fill="#EDF7FA" opacity="1.000000" stroke="none" 
	d="
M252.126648,293.757629 
	C252.316208,293.756409 252.608200,294.068909 252.997894,294.689850 
	C252.806763,294.689331 252.517914,294.380310 252.126648,293.757629 
z"/>
<path fill="#389CE4" opacity="1.000000" stroke="none" 
	d="
M1028.985352,283.000000 
	C1028.983643,299.327148 1028.992065,315.154297 1028.975464,330.981445 
	C1028.968994,337.143250 1028.551880,337.419922 1022.271545,336.278595 
	C1020.488342,335.954529 1018.654480,335.908905 1016.282227,335.681824 
	C1016.188049,333.880920 1016.015930,332.116699 1016.015320,330.352417 
	C1016.002258,292.034058 1016.161987,253.714493 1015.858765,215.398575 
	C1015.808533,209.056381 1019.244385,210.135818 1023.056519,209.902557 
	C1027.334473,209.640778 1029.172607,210.566010 1029.107910,215.527802 
	C1028.817261,237.848602 1028.983643,260.175385 1028.985352,283.000000 
z"/>
<path fill="#A5C9E2" opacity="1.000000" stroke="none" 
	d="
M397.229370,171.029358 
	C397.964935,168.952637 398.985596,167.006271 400.125244,164.762955 
	C401.911682,162.308594 403.579193,160.151184 405.589600,157.972778 
	C404.498291,161.502502 403.064026,165.053192 401.065277,168.862946 
	C399.754242,170.133530 399.007721,171.145065 398.261169,172.156586 
	C398.012268,171.824295 397.763367,171.492004 397.229370,171.029358 
z"/>
<path fill="#64707E" opacity="1.000000" stroke="none" 
	d="
M398.149353,172.496887 
	C399.007721,171.145065 399.754242,170.133530 400.809204,169.025375 
	C400.420807,171.371674 399.724030,173.814590 398.941833,176.626068 
	C397.975281,178.589325 397.094116,180.184021 395.967621,181.902161 
	C395.439880,182.016708 395.157471,182.007812 394.451233,182.004608 
	C395.364105,178.952591 396.700806,175.894897 398.149353,172.496887 
z"/>
<path fill="#A5C9E2" opacity="1.000000" stroke="none" 
	d="
M406.230103,157.846130 
	C406.072021,157.372223 406.212402,156.786499 406.650330,156.073593 
	C406.808105,156.542374 406.668365,157.138336 406.230103,157.846130 
z"/>
<path fill="#A5C9E2" opacity="1.000000" stroke="none" 
	d="
M407.869141,154.225006 
	C408.247528,154.177032 408.535309,154.363556 408.948364,154.779922 
	C408.880737,155.014786 408.687805,155.019821 408.208374,154.983124 
	C407.874084,154.780746 407.826294,154.620102 407.869141,154.225006 
z"/>
<path fill="#A5C9E2" opacity="1.000000" stroke="none" 
	d="
M407.191833,155.900864 
	C407.084503,155.629486 407.234314,155.291550 407.674500,154.946960 
	C407.792908,155.238312 407.620941,155.536301 407.191833,155.900864 
z"/>
<path fill="#393F47" opacity="1.000000" stroke="none" 
	d="
M333.139343,263.396423 
	C334.219635,262.764648 335.288422,262.519684 336.815979,262.485779 
	C338.165955,265.484711 339.057190,268.272552 339.958557,271.471985 
	C341.816681,280.064240 343.652771,288.247650 345.560974,296.414246 
	C345.629181,296.706268 346.409729,296.831848 346.922272,297.376617 
	C347.309540,298.809753 347.632812,299.901306 347.956085,300.992828 
	C346.911591,301.297821 345.867065,301.602783 344.495819,301.944214 
	C340.488678,289.248169 336.808289,276.515686 333.139343,263.396423 
z"/>
<path fill="#30333B" opacity="1.000000" stroke="none" 
	d="
M371.034424,265.080322 
	C371.247101,265.989746 371.080872,266.899048 370.538330,267.893372 
	C370.326538,267.012360 370.491028,266.046265 371.034424,265.080322 
z"/>
<path fill="#64707E" opacity="1.000000" stroke="none" 
	d="
M336.041595,255.970123 
	C334.987091,250.309158 333.932587,244.648178 332.839294,238.564743 
	C338.179993,237.769821 343.559418,237.397385 349.365906,237.044464 
	C349.196289,243.766495 348.599640,250.469009 347.549347,257.536072 
	C343.411011,257.257080 339.726288,256.613617 336.041595,255.970123 
z"/>
<path fill="#545D6B" opacity="1.000000" stroke="none" 
	d="
M336.027588,256.360413 
	C339.726288,256.613617 343.411011,257.257080 347.484741,257.966919 
	C347.636475,264.713379 347.399109,271.393555 346.750366,278.499481 
	C345.152313,277.461823 343.966705,275.997559 342.778717,274.535187 
	C341.836761,273.375732 340.891968,272.218597 339.948425,271.060425 
	C339.057190,268.272552 338.165955,265.484711 337.124329,262.355103 
	C336.653839,260.259125 336.333710,258.504944 336.027588,256.360413 
z"/>
<path fill="#494D57" opacity="1.000000" stroke="none" 
	d="
M339.958557,271.471985 
	C340.891968,272.218597 341.836761,273.375732 342.778717,274.535187 
	C343.966705,275.997559 345.152313,277.461823 346.700684,278.953125 
	C347.338776,282.051453 347.615112,285.121918 347.893799,288.850006 
	C347.896118,289.507660 347.971069,289.988617 347.971069,289.988617 
	C347.980042,290.433044 347.988983,290.877441 347.661499,291.887512 
	C347.169434,293.980469 347.013855,295.507721 346.858276,297.035004 
	C346.409729,296.831848 345.629181,296.706268 345.560974,296.414246 
	C343.652771,288.247650 341.816681,280.064240 339.958557,271.471985 
z"/>
<path fill="#798B9D" opacity="1.000000" stroke="none" 
	d="
M346.922272,297.376617 
	C347.013855,295.507721 347.169434,293.980469 347.622986,292.218750 
	C348.442871,295.174042 348.964813,298.363708 349.213013,301.783020 
	C348.618835,301.903137 348.376099,301.700500 348.083618,301.198792 
	C347.632812,299.901306 347.309540,298.809753 346.922272,297.376617 
z"/>
<path fill="#798B9D" opacity="1.000000" stroke="none" 
	d="
M348.144196,289.906189 
	C347.971069,289.988617 347.896118,289.507660 347.921082,289.265747 
	C348.069824,289.290436 348.193573,289.557068 348.144196,289.906189 
z"/>
</svg>