<svg version="1.1" id="Layer_1" xmlns="http://www.w3.org/2000/svg" xmlns:xlink="http://www.w3.org/1999/xlink" x="0px" y="0px"
	 width="100%" viewBox="0 0 360 366" enable-background="new 0 0 360 366" xml:space="preserve">
<path fill="#FEFFFF" opacity="1.000000" stroke="none" 
	d="
M200.000000,367.000000 
	C133.356110,367.000000 67.212227,367.000000 1.034169,367.000000 
	C1.034169,245.064789 1.034169,123.129570 1.034169,1.097172 
	C120.893829,1.097172 240.787766,1.097172 360.840851,1.097172 
	C360.840851,122.999832 360.840851,244.999893 360.840851,367.000000 
	C307.462982,367.000000 253.981491,367.000000 200.000000,367.000000 
M127.323624,277.970642 
	C126.728218,278.116241 126.132820,278.261841 124.135696,278.750183 
	C128.821426,281.148621 132.423370,282.992310 136.629333,285.197021 
	C148.024139,291.500854 159.177002,298.188782 172.300797,300.722107 
	C183.544708,302.892517 194.656052,305.106567 206.504410,302.323395 
	C208.652969,303.197662 212.013901,299.459320 212.526825,304.386322 
	C176.764725,321.772186 140.043686,324.324707 102.759483,310.282104 
	C91.650215,306.097992 81.413063,299.598328 70.762085,293.475250 
	C64.578201,287.973755 58.394321,282.472229 52.210442,276.970734 
	C51.778713,277.427856 51.346989,277.884979 50.915264,278.342133 
	C56.256096,283.899445 61.596928,289.456787 67.102211,295.674805 
	C80.887230,309.212219 96.624443,319.875092 114.387970,327.465515 
	C136.719696,337.007874 160.054062,338.837891 183.879501,335.805298 
	C201.482941,333.564636 217.343781,327.373688 229.886780,314.182434 
	C237.666107,306.001099 239.350571,299.622925 235.497803,291.159241 
	C234.980606,289.751740 234.463409,288.344238 234.540161,286.466461 
	C247.261337,268.823761 258.398102,250.413422 263.580414,227.390579 
	C258.478546,231.494431 254.576416,234.633224 250.674286,237.772018 
	C250.259232,237.296082 249.844177,236.820145 249.429108,236.344193 
	C252.850586,232.609894 256.545013,229.085602 259.622314,225.086487 
	C263.222595,220.407791 267.973816,215.711533 269.238495,210.321930 
	C272.104645,198.107391 273.138184,185.462830 275.350281,172.403549 
	C275.460175,170.969482 275.570068,169.535431 275.745361,167.383026 
	C275.737122,166.902832 275.728882,166.422623 275.974823,165.155869 
	C276.669403,160.348358 277.363953,155.540848 278.180878,149.886276 
	C274.824249,151.994308 272.282043,153.590866 269.739807,155.187424 
	C269.479370,154.889862 269.218903,154.592316 268.958466,154.294754 
	C270.980438,151.875107 273.002411,149.455460 275.682617,146.701828 
	C279.155365,138.623459 278.592651,130.308746 277.399078,121.153076 
	C277.364594,114.062981 277.330139,106.972893 277.656128,99.252518 
	C277.814514,95.151382 277.972931,91.050240 278.374359,86.209724 
	C279.443481,79.815567 280.512573,73.421417 282.040222,66.419403 
	C284.891144,59.061016 287.742065,51.702629 290.593018,44.344238 
	C290.142242,44.050003 289.691498,43.755764 289.240753,43.461529 
	C287.490082,44.702950 285.739410,45.944366 283.254120,47.063610 
	C280.824249,48.348419 278.394379,49.633224 275.220886,50.835274 
	C272.875488,52.042915 270.449310,53.116989 268.197327,54.479099 
	C248.187531,66.582237 230.502075,81.063629 219.540665,102.369118 
	C217.738708,105.871529 215.906403,109.358330 213.952057,112.173790 
	C212.000168,108.686882 210.048279,105.199974 208.081696,101.030144 
	C205.467377,96.988098 202.853058,92.946060 200.062012,88.213768 
	C196.345093,82.790512 193.018768,77.038887 188.808258,72.030594 
	C183.996063,66.306595 178.397369,61.243820 172.835907,55.277908 
	C171.142868,53.001476 169.449844,50.725048 166.867279,47.252575 
	C166.867279,59.758503 167.615906,71.069908 166.636353,82.229614 
	C165.815567,91.580467 162.977005,100.754196 160.553848,110.567024 
	C158.812927,117.711006 157.072021,124.854996 155.021637,132.720779 
	C153.075424,144.819748 151.129227,156.918701 149.045242,169.766968 
	C150.192307,177.188385 151.339371,184.609818 152.627991,192.753342 
	C155.331650,208.115753 162.213379,221.597015 171.092834,234.229279 
	C176.579208,242.034424 181.816772,250.014465 186.453720,257.964600 
	C183.440018,255.641602 180.363647,253.394882 177.424820,250.980728 
	C169.865753,244.771149 162.633804,238.122391 154.745728,232.369598 
	C149.985107,228.897644 144.242981,226.771515 138.753708,223.415802 
	C137.822662,222.963409 136.891602,222.511017 136.007111,222.012802 
	C136.007111,222.012802 135.950562,222.042755 135.717117,221.401184 
	C116.921745,210.715714 102.811195,194.960358 89.563690,177.341125 
	C88.763229,179.132874 88.201233,179.830460 88.166977,180.553070 
	C87.766434,189.002167 86.691711,197.512299 87.328331,205.889771 
	C87.893967,213.333359 90.380997,220.630920 92.014236,228.740067 
	C93.715965,232.843994 95.417694,236.947937 96.892738,241.812393 
	C101.122055,254.079941 106.224823,265.650909 119.262794,271.273285 
	C122.295784,272.581207 125.136246,274.335602 128.030182,276.553741 
	C128.008011,276.999512 127.985832,277.445282 127.323624,277.970642 
z"/>
<path fill="#3F99D9" opacity="1.000000" stroke="none" 
	d="
M235.523224,291.907104 
	C239.350571,299.622925 237.666107,306.001099 229.886780,314.182434 
	C217.343781,327.373688 201.482941,333.564636 183.879501,335.805298 
	C160.054062,338.837891 136.719696,337.007874 114.387970,327.465515 
	C96.624443,319.875092 80.887230,309.212219 67.356903,295.352539 
	C68.666496,294.740051 69.721405,294.449829 70.776314,294.159607 
	C81.413063,299.598328 91.650215,306.097992 102.759483,310.282104 
	C140.043686,324.324707 176.764725,321.772186 213.198151,304.188477 
	C217.021378,301.273499 220.173309,298.556335 223.629166,295.848663 
	C225.184570,295.266235 226.436020,294.674316 228.029648,294.059570 
	C229.239594,293.775024 230.107361,293.513275 231.298141,293.134644 
	C232.921844,292.647583 234.222534,292.277344 235.523224,291.907104 
z"/>
<path fill="#91ABC1" opacity="1.000000" stroke="none" 
	d="
M214.088120,112.852348 
	C215.906403,109.358330 217.738708,105.871529 219.540665,102.369118 
	C230.502075,81.063629 248.187531,66.582237 268.197327,54.479099 
	C270.449310,53.116989 272.875488,52.042915 275.542236,51.222557 
	C275.016235,52.817783 274.175293,54.030293 273.320465,55.232903 
	C268.874237,61.488079 264.424438,67.740738 259.765564,74.253952 
	C258.048798,76.456055 256.140930,78.206650 255.105209,80.374001 
	C250.549240,89.907738 246.749725,99.836044 241.715790,109.099518 
	C236.034195,119.554749 232.854752,130.703506 229.841522,142.305847 
	C229.064438,142.945786 228.282944,143.340363 228.206299,143.842514 
	C225.047195,164.542297 221.951370,185.251770 218.625549,206.186432 
	C218.371948,207.025299 218.340408,207.637756 218.309296,208.676422 
	C218.266693,211.392044 218.223663,213.681442 217.859787,216.227127 
	C217.363815,218.111237 216.987625,219.747314 217.054230,221.365189 
	C217.205872,225.049713 215.718994,227.065170 211.629517,226.868561 
	C210.562347,225.104294 209.768646,223.551041 208.971924,221.619034 
	C208.633728,219.149734 207.619659,216.891647 208.086655,214.999023 
	C209.694229,208.483948 209.187424,202.230301 207.336227,195.763458 
	C208.083527,189.827957 208.657593,184.135452 208.769897,178.433868 
	C208.792542,177.284271 207.064911,176.100189 206.367737,174.648636 
	C207.381317,173.328568 208.734894,172.357559 208.864746,171.243896 
	C209.452133,166.205322 209.693665,161.126419 210.246902,155.929962 
	C210.678360,155.568726 210.767532,155.289948 210.737183,154.649765 
	C210.788513,153.921143 210.804214,153.504333 210.907227,152.747284 
	C211.363876,148.929169 211.733185,145.451248 212.427216,141.916794 
	C212.833084,135.224915 212.914230,128.589584 212.990753,121.536118 
	C213.353470,118.362762 213.720795,115.607559 214.088120,112.852348 
z"/>
<path fill="#32353D" opacity="1.000000" stroke="none" 
	d="
M227.687469,294.082397 
	C226.436020,294.674316 225.184570,295.266235 223.596252,295.488220 
	C220.171448,292.735229 217.083511,290.352173 213.989014,287.613861 
	C207.371994,280.417023 200.761520,273.575439 193.994232,266.428680 
	C191.877228,263.721436 189.917023,261.319305 187.927475,258.608582 
	C187.609573,258.162109 187.320999,258.024261 187.058197,257.928375 
	C187.083969,257.970306 187.166046,257.915985 187.166046,257.915985 
	C181.816772,250.014465 176.579208,242.034424 171.092834,234.229279 
	C162.213379,221.597015 155.331650,208.115753 152.982422,192.401764 
	C164.846054,191.369904 176.355225,190.689636 188.016266,190.354492 
	C188.791840,192.201706 189.590912,193.656204 190.013443,195.212906 
	C199.297882,229.418610 209.030045,263.449280 227.687469,294.082397 
z"/>
<path fill="#32363D" opacity="1.000000" stroke="none" 
	d="
M274.916870,172.993118 
	C273.138184,185.462830 272.104645,198.107391 269.238495,210.321930 
	C267.973816,215.711533 263.222595,220.407791 259.622314,225.086487 
	C256.545013,229.085602 252.850586,232.609894 249.429108,236.344193 
	C249.844177,236.820145 250.259232,237.296082 250.674286,237.772018 
	C254.576416,234.633224 258.478546,231.494431 263.580414,227.390579 
	C258.398102,250.413422 247.261337,268.823761 233.958344,286.687683 
	C232.837952,286.449585 232.299377,285.990234 231.822052,285.097168 
	C231.880936,258.390381 231.808243,232.117004 231.935471,205.844589 
	C231.961014,200.569519 232.746765,195.298111 233.593170,190.030014 
	C244.107681,190.961456 254.211029,191.887894 264.647339,192.844879 
	C265.135895,191.848816 265.900330,190.206894 266.735962,188.602036 
	C269.448914,183.391769 272.187897,178.195053 274.916870,172.993118 
M248.710861,238.919296 
	C249.288071,238.777618 249.865265,238.635956 250.442474,238.494278 
	C250.371704,238.271393 250.300919,238.048523 250.230148,237.825653 
	C249.570724,238.028748 248.911301,238.231842 248.710861,238.919296 
z"/>
<path fill="#80ADD0" opacity="1.000000" stroke="none" 
	d="
M206.025238,301.859161 
	C194.656052,305.106567 183.544708,302.892517 172.300797,300.722107 
	C159.177002,298.188782 148.024139,291.500854 136.321960,284.643188 
	C135.981064,283.335968 135.947556,282.582581 136.195053,281.540710 
	C138.825668,281.039368 141.175278,280.826477 143.524872,280.613556 
	C143.577316,280.114197 143.629761,279.614807 143.682190,279.115417 
	C138.476562,278.038483 133.270920,276.961517 128.065292,275.884552 
	C125.136246,274.335602 122.295784,272.581207 119.262794,271.273285 
	C106.224823,265.650909 101.122055,254.079941 97.335251,241.614090 
	C105.812859,241.618851 113.847954,241.821930 122.139351,242.244247 
	C124.497986,244.340744 126.768364,246.062302 128.675293,248.120575 
	C140.626404,261.020355 153.659409,272.729553 169.411621,280.654205 
	C181.235199,286.602448 193.775635,291.125702 205.997589,296.683044 
	C206.007233,298.674866 206.016235,300.266998 206.025238,301.859161 
z"/>
<path fill="#7EB1D8" opacity="1.000000" stroke="none" 
	d="
M187.956818,258.917206 
	C189.917023,261.319305 191.877228,263.721436 193.747375,266.648895 
	C195.143066,272.032288 196.628815,276.890350 197.993820,282.011902 
	C197.581741,282.521851 197.290421,282.768250 196.667969,282.881226 
	C193.212753,281.502563 190.088654,280.257294 186.743576,278.760193 
	C182.992645,276.708832 179.462677,274.909271 175.718170,272.857300 
	C172.228333,270.040497 169.091614,267.271362 165.654922,264.945496 
	C145.783447,251.497055 128.704544,235.112915 114.146103,215.915192 
	C117.753120,212.841629 120.386421,215.596497 123.291130,216.851669 
	C127.477028,218.660507 131.727585,220.319717 135.950562,222.042755 
	C135.950562,222.042755 136.007111,222.012802 136.036987,222.375229 
	C137.025208,223.171982 137.983551,223.606323 138.941895,224.040649 
	C144.242981,226.771515 149.985107,228.897644 154.745728,232.369598 
	C162.633804,238.122391 169.865753,244.771149 177.424820,250.980728 
	C180.363647,253.394882 183.440018,255.641602 186.809875,257.940308 
	C187.166046,257.915985 187.083969,257.970306 187.109802,258.176361 
	C187.409378,258.560669 187.683090,258.738953 187.956818,258.917206 
z"/>
<path fill="#4A4E58" opacity="1.000000" stroke="none" 
	d="
M149.183014,169.017670 
	C151.129227,156.918701 153.075424,144.819748 155.533890,132.347183 
	C158.008865,131.170700 160.092484,130.577103 161.911865,129.526093 
	C167.604141,126.237816 172.362823,127.826271 175.144562,133.749512 
	C176.216141,136.031250 178.113724,137.925079 179.735077,140.421417 
	C181.106735,148.660645 182.445801,156.464066 183.613098,164.293091 
	C184.020493,167.025543 184.004150,169.821198 184.044678,172.954742 
	C181.515396,174.144836 179.178268,175.279022 176.717087,175.718552 
	C173.031586,176.376724 169.123993,176.051056 165.550278,177.023575 
	C157.076401,179.329529 154.212708,178.098831 150.497711,169.602936 
	C150.355743,169.278305 149.634384,169.207016 149.183014,169.017670 
z"/>
<path fill="#474C55" opacity="1.000000" stroke="none" 
	d="
M275.133575,172.698334 
	C272.187897,178.195053 269.448914,183.391769 266.735962,188.602036 
	C265.900330,190.206894 265.135895,191.848816 264.647339,192.844879 
	C254.211029,191.887894 244.107681,190.961456 233.531326,189.614227 
	C233.736847,185.839737 234.665070,182.514679 235.053864,179.127731 
	C237.819611,155.033707 243.920090,131.783340 252.666794,109.211655 
	C254.058716,105.619637 256.123718,102.288437 257.918610,99.236214 
	C255.654297,106.750793 253.348938,113.865807 250.892258,121.328392 
	C249.598679,125.286499 248.210419,128.840897 247.370789,132.520493 
	C246.053909,138.291702 245.107361,144.147415 243.959991,150.304413 
	C242.607697,155.756989 241.299362,160.872482 239.744110,166.203949 
	C239.321136,167.196686 239.145096,167.973465 239.116104,168.101364 
	C251.350357,168.101364 263.515167,168.101364 275.679962,168.101364 
	C275.570068,169.535431 275.460175,170.969482 275.133575,172.698334 
z"/>
<path fill="#3C424A" opacity="1.000000" stroke="none" 
	d="
M231.760818,285.530884 
	C232.299377,285.990234 232.837952,286.449585 233.661377,286.922852 
	C234.463409,288.344238 234.980606,289.751740 235.510513,291.533203 
	C234.222534,292.277344 232.921844,292.647583 230.924011,293.048553 
	C225.762100,279.804138 221.297333,266.528992 217.025757,252.959198 
	C220.153595,251.476593 219.814041,249.287186 219.006729,246.479248 
	C219.000900,241.888000 219.024597,237.758575 218.897690,233.633804 
	C218.716507,227.744370 218.425003,221.858337 218.180618,215.970840 
	C218.223663,213.681442 218.266693,211.392044 218.498444,208.433044 
	C218.740616,207.162292 218.794098,206.561157 218.847580,205.960007 
	C221.951370,185.251770 225.047195,164.542297 228.206299,143.842514 
	C228.282944,143.340363 229.064438,142.945786 230.099487,142.578476 
	C232.043808,144.632614 228.883301,148.946198 234.010620,149.415649 
	C234.033035,150.327454 234.081390,150.844086 233.968552,151.322723 
	C226.228821,184.153687 221.664185,217.327835 225.159805,251.077606 
	C226.360031,262.665619 229.504532,274.052246 231.760818,285.530884 
z"/>
<path fill="#A7CAE2" opacity="1.000000" stroke="none" 
	d="
M135.833832,221.721985 
	C131.727585,220.319717 127.477028,218.660507 123.291130,216.851669 
	C120.386421,215.596497 117.753120,212.841629 113.872833,215.751404 
	C112.603622,215.274445 111.775940,214.655212 110.822372,213.713776 
	C106.669327,207.793167 102.642174,202.194763 98.615028,196.596359 
	C98.089317,196.948929 97.563606,197.301498 97.037895,197.654068 
	C100.355392,203.384903 103.672890,209.115723 106.987000,215.239197 
	C108.022385,219.065063 109.061134,222.498276 109.628220,225.957245 
	C103.444351,226.652969 97.732155,227.322952 92.019951,227.992935 
	C90.380997,220.630920 87.893967,213.333359 87.328331,205.889771 
	C86.691711,197.512299 87.766434,189.002167 88.166977,180.553070 
	C88.201233,179.830460 88.763229,179.132874 89.563690,177.341125 
	C102.811195,194.960358 116.921745,210.715714 135.833832,221.721985 
z"/>
<path fill="#383C44" opacity="1.000000" stroke="none" 
	d="
M161.031860,110.006355 
	C162.977005,100.754196 165.815567,91.580467 166.636353,82.229614 
	C167.615906,71.069908 166.867279,59.758503 166.867279,47.252575 
	C169.449844,50.725048 171.142868,53.001476 172.934357,55.984596 
	C173.145370,57.334183 173.202530,57.992710 173.378723,58.617687 
	C176.978180,71.386421 180.591232,84.151314 184.174133,97.324448 
	C184.499374,100.479858 184.852051,103.227798 185.179443,106.390015 
	C185.724960,111.887299 186.295792,116.970291 186.886536,122.469742 
	C187.193497,125.569305 187.480545,128.252411 187.494598,130.975372 
	C186.811111,131.346069 186.400589,131.676910 185.882111,132.220886 
	C185.344513,132.606964 184.914917,132.779938 184.229340,132.617111 
	C181.917969,118.216476 179.862595,104.151642 177.807205,90.086807 
	C177.405792,90.132439 177.004395,90.178062 176.602982,90.223694 
	C176.602982,97.514557 176.602982,104.805412 176.164963,112.041840 
	C170.828583,111.327049 165.930222,110.666702 161.031860,110.006355 
z"/>
<path fill="#6B7988" opacity="1.000000" stroke="none" 
	d="
M244.003967,149.967346 
	C245.107361,144.147415 246.053909,138.291702 247.370789,132.520493 
	C248.210419,128.840897 249.598679,125.286499 251.354675,121.342415 
	C260.356537,121.319748 268.744659,121.630615 277.132782,121.941490 
	C278.592651,130.308746 279.155365,138.623459 275.081146,146.571533 
	C267.291321,146.808975 260.086060,146.988571 252.922684,147.633713 
	C249.904190,147.905548 246.974197,149.159714 244.003967,149.967346 
z"/>
<path fill="#555E6C" opacity="1.000000" stroke="none" 
	d="
M243.959991,150.304413 
	C246.974197,149.159714 249.904190,147.905548 252.922684,147.633713 
	C260.086060,146.988571 267.291321,146.808975 274.752014,146.738525 
	C273.002411,149.455460 270.980438,151.875107 268.958466,154.294754 
	C269.218903,154.592316 269.479370,154.889862 269.739807,155.187424 
	C272.282043,153.590866 274.824249,151.994308 278.180878,149.886276 
	C277.363953,155.540848 276.669403,160.348358 275.426697,165.557373 
	C263.249390,165.968567 251.620224,165.978287 239.991043,165.987991 
	C241.299362,160.872482 242.607697,155.756989 243.959991,150.304413 
z"/>
<path fill="#3A4048" opacity="1.000000" stroke="none" 
	d="
M149.114136,169.392319 
	C149.634384,169.207016 150.355743,169.278305 150.497711,169.602936 
	C154.212708,178.098831 157.076401,179.329529 165.550278,177.023575 
	C169.123993,176.051056 173.031586,176.376724 176.717087,175.718552 
	C179.178268,175.279022 181.515396,174.144836 184.364334,173.187805 
	C185.835220,178.705856 186.849823,184.357605 187.864410,190.009354 
	C176.355225,190.689636 164.846054,191.369904 152.911652,192.040710 
	C151.339371,184.609818 150.192307,177.188385 149.114136,169.392319 
z"/>
<path fill="#7A8B9D" opacity="1.000000" stroke="none" 
	d="
M277.265930,121.547287 
	C268.744659,121.630615 260.356537,121.319748 251.505997,120.994850 
	C253.348938,113.865807 255.654297,106.750793 257.954407,99.270340 
	C257.949127,98.904907 257.892731,98.986855 258.137512,98.895187 
	C258.597473,98.534439 258.812622,98.265366 259.404297,98.076431 
	C261.543762,98.773041 263.282166,99.816208 265.074646,99.919472 
	C269.134125,100.153320 273.220337,99.923851 277.295654,99.882797 
	C277.330139,106.972893 277.364594,114.062981 277.265930,121.547287 
z"/>
<path fill="#8497AA" opacity="1.000000" stroke="none" 
	d="
M186.866623,122.053284 
	C186.295792,116.970291 185.724960,111.887299 185.604645,106.396637 
	C190.883621,106.107285 195.759445,105.852036 200.526321,106.456230 
	C204.713882,106.987007 207.069672,105.690903 208.096375,101.713066 
	C210.048279,105.199974 212.000168,108.686882 214.020081,112.513069 
	C213.720795,115.607559 213.353470,118.362762 212.729187,121.668182 
	C211.988724,122.807945 211.505188,123.397491 210.661591,123.845345 
	C202.489899,123.153526 194.678268,122.603409 186.866623,122.053284 
z"/>
<path fill="#474C55" opacity="1.000000" stroke="none" 
	d="
M160.792847,110.286690 
	C165.930222,110.666702 170.828583,111.327049 176.227875,112.416756 
	C177.697525,121.895958 178.666245,130.945801 179.634949,139.995651 
	C178.113724,137.925079 176.216141,136.031250 175.144562,133.749512 
	C172.362823,127.826271 167.604141,126.237816 161.911865,129.526093 
	C160.092484,130.577103 158.008865,131.170700 155.688629,131.986282 
	C157.072021,124.854996 158.812927,117.711006 160.792847,110.286690 
z"/>
<path fill="#99AFC1" opacity="1.000000" stroke="none" 
	d="
M184.201584,96.916977 
	C180.591232,84.151314 176.978180,71.386421 173.378723,58.617687 
	C173.202530,57.992710 173.145370,57.334183 173.086609,56.292503 
	C178.397369,61.243820 183.996063,66.306595 188.808258,72.030594 
	C193.018768,77.038887 196.345093,82.790512 199.749115,88.563728 
	C197.550888,88.302773 195.588867,87.860680 193.795990,87.046196 
	C189.925461,85.287857 187.590179,86.039978 186.650085,90.498329 
	C186.183395,92.711571 185.039246,94.781960 184.201584,96.916977 
z"/>
<path fill="#8ABADE" opacity="1.000000" stroke="none" 
	d="
M92.017090,228.366501 
	C97.732155,227.322952 103.444351,226.652969 109.922722,226.115540 
	C114.420273,231.507034 118.151665,236.766022 121.883057,242.024994 
	C113.847954,241.821930 105.812859,241.618851 97.448586,241.233826 
	C95.417694,236.947937 93.715965,232.843994 92.017090,228.366501 
z"/>
<path fill="#91A5B7" opacity="1.000000" stroke="none" 
	d="
M184.174133,97.324448 
	C185.039246,94.781960 186.183395,92.711571 186.650085,90.498329 
	C187.590179,86.039978 189.925461,85.287857 193.795990,87.046196 
	C195.588867,87.860680 197.550888,88.302773 199.837494,88.908852 
	C202.853058,92.946060 205.467377,96.988098 208.089035,101.371605 
	C207.069672,105.690903 204.713882,106.987007 200.526321,106.456230 
	C195.759445,105.852036 190.883621,106.107285 185.629944,105.982353 
	C184.852051,103.227798 184.499374,100.479858 184.174133,97.324448 
z"/>
<path fill="#92A5B8" opacity="1.000000" stroke="none" 
	d="
M281.581696,67.027260 
	C280.512573,73.421417 279.443481,79.815567 277.780151,86.592102 
	C272.138641,87.651543 267.091370,88.328613 262.053894,88.626053 
	C262.681915,85.833710 263.300140,83.420998 264.301331,80.995094 
	C269.047577,77.323059 270.576660,72.397903 271.083435,66.666885 
	C272.107910,65.244522 272.999634,64.111938 274.244446,63.014412 
	C276.925568,64.375397 279.253632,65.701332 281.581696,67.027260 
z"/>
<path fill="#8699AB" opacity="1.000000" stroke="none" 
	d="
M262.044067,89.005684 
	C267.091370,88.328613 272.138641,87.651543 277.658630,86.961792 
	C277.972931,91.050240 277.814514,95.151382 277.475891,99.567657 
	C273.220337,99.923851 269.134125,100.153320 265.074646,99.919472 
	C263.282166,99.816208 261.543762,98.773041 259.394043,97.728027 
	C259.007050,96.835228 259.006866,96.370972 259.036285,95.545731 
	C260.058594,93.125053 261.051331,91.065369 262.044067,89.005684 
z"/>
<path fill="#89AAC5" opacity="1.000000" stroke="none" 
	d="
M196.999084,283.014648 
	C197.290421,282.768250 197.581741,282.521851 198.357727,282.092804 
	C203.893448,283.929810 208.944504,285.949432 213.995575,287.969086 
	C217.083511,290.352173 220.171448,292.735229 223.292297,295.478760 
	C220.173309,298.556335 217.021378,301.273499 213.523926,304.034119 
	C212.013901,299.459320 208.652969,303.197662 206.264832,302.091278 
	C206.016235,300.266998 206.007233,298.674866 206.399872,296.610260 
	C209.780319,296.612671 212.759094,297.087555 215.737869,297.562408 
	C215.968826,297.094330 216.199783,296.626251 216.430740,296.158173 
	C210.954239,293.099182 205.477737,290.040192 199.878326,286.766602 
	C199.533600,286.294281 199.259979,286.116211 198.968231,286.017151 
	C199.001938,286.016571 198.982437,286.081116 198.870102,285.795227 
	C198.171539,284.677765 197.585312,283.846191 196.999084,283.014648 
z"/>
<path fill="#9BB0C3" opacity="1.000000" stroke="none" 
	d="
M281.810974,66.723328 
	C279.253632,65.701332 276.925568,64.375397 274.336426,62.676964 
	C277.379791,57.264908 280.684265,52.225346 283.988739,47.185783 
	C285.739410,45.944366 287.490082,44.702950 289.240753,43.461529 
	C289.691498,43.755764 290.142242,44.050003 290.593018,44.344238 
	C287.742065,51.702629 284.891144,59.061016 281.810974,66.723328 
z"/>
<path fill="#515963" opacity="1.000000" stroke="none" 
	d="
M283.621429,47.124695 
	C280.684265,52.225346 277.379791,57.264908 273.983337,62.641911 
	C272.999634,64.111938 272.107910,65.244522 270.815063,66.858185 
	C268.536407,69.565132 266.658813,71.790993 264.381195,74.015625 
	C262.646057,74.007683 261.310974,74.000977 259.975891,73.994270 
	C264.424438,67.740738 268.874237,61.488079 273.320465,55.232903 
	C274.175293,54.030293 275.016235,52.817783 275.914032,51.263931 
	C278.394379,49.633224 280.824249,48.348419 283.621429,47.124695 
z"/>
<path fill="#68A6CE" opacity="1.000000" stroke="none" 
	d="
M70.769196,293.817444 
	C69.721405,294.449829 68.666496,294.740051 67.274673,295.022217 
	C61.596928,289.456787 56.256096,283.899445 50.915264,278.342133 
	C51.346989,277.884979 51.778713,277.427856 52.210442,276.970734 
	C58.394321,282.472229 64.578201,287.973755 70.769196,293.817444 
z"/>
<path fill="#757982" opacity="1.000000" stroke="none" 
	d="
M239.744110,166.203949 
	C251.620224,165.978287 263.249390,165.968567 275.299622,165.950653 
	C275.728882,166.422623 275.737122,166.902832 275.712646,167.742188 
	C263.515167,168.101364 251.350357,168.101364 239.116104,168.101364 
	C239.145096,167.973465 239.321136,167.196686 239.744110,166.203949 
z"/>
<path fill="#E2EEF4" opacity="1.000000" stroke="none" 
	d="
M128.047729,276.219147 
	C133.270920,276.961517 138.476562,278.038483 143.682190,279.115417 
	C143.629761,279.614807 143.577316,280.114197 143.524872,280.613556 
	C141.175278,280.826477 138.825668,281.039368 135.925674,281.356873 
	C132.904739,280.271332 130.434204,279.081207 127.963654,277.891052 
	C127.985832,277.445282 128.008011,276.999512 128.047729,276.219147 
z"/>
<path fill="#A1B6C9" opacity="1.000000" stroke="none" 
	d="
M127.643639,277.930847 
	C130.434204,279.081207 132.904739,280.271332 135.644669,281.645325 
	C135.947556,282.582581 135.981064,283.335968 136.019943,284.462708 
	C132.423370,282.992310 128.821426,281.148621 124.135696,278.750183 
	C126.132820,278.261841 126.728218,278.116241 127.643639,277.930847 
z"/>
<path fill="#A7CAE2" opacity="1.000000" stroke="none" 
	d="
M138.847809,223.728226 
	C137.983551,223.606323 137.025208,223.171982 136.013702,222.398132 
	C136.891602,222.511017 137.822662,222.963409 138.847809,223.728226 
z"/>
<path fill="#EBECED" opacity="1.000000" stroke="none" 
	d="
M179.735077,140.421417 
	C178.666245,130.945801 177.697525,121.895958 176.665894,112.471191 
	C176.602982,104.805412 176.602982,97.514557 176.602982,90.223694 
	C177.004395,90.178062 177.405792,90.132439 177.807205,90.086807 
	C179.862595,104.151642 181.917969,118.216476 184.196533,133.038437 
	C184.487228,135.236374 184.369171,136.714645 184.651352,138.112106 
	C187.107849,150.276810 189.149734,162.553238 192.262848,174.550446 
	C196.396973,190.482285 201.383453,206.192963 206.013428,222.391464 
	C209.626297,232.940796 213.229416,243.097321 216.832550,253.253860 
	C221.297333,266.528992 225.762100,279.804138 230.601013,293.165405 
	C230.107361,293.513275 229.239594,293.775024 228.029663,294.059601 
	C209.030045,263.449280 199.297882,229.418610 190.013443,195.212906 
	C189.590912,193.656204 188.791840,192.201706 188.016266,190.354492 
	C186.849823,184.357605 185.835220,178.705856 184.500977,172.821045 
	C184.004150,169.821198 184.020493,167.025543 183.613098,164.293091 
	C182.445801,156.464066 181.106735,148.660645 179.735077,140.421417 
z"/>
<path fill="#758697" opacity="1.000000" stroke="none" 
	d="
M186.886536,122.469742 
	C194.678268,122.603409 202.489899,123.153526 210.952515,124.143127 
	C211.640839,130.026581 213.586182,135.657043 210.258759,140.790909 
	C210.749619,141.105713 211.426071,141.539520 212.102509,141.973343 
	C211.733185,145.451248 211.363876,148.929169 210.534180,152.718964 
	C204.374084,153.361221 198.674362,153.691589 192.691696,153.755264 
	C190.906128,146.329697 189.403473,139.170837 187.890915,131.739960 
	C187.843216,131.290482 187.805405,131.112991 187.767609,130.935516 
	C187.480545,128.252411 187.193497,125.569305 186.886536,122.469742 
z"/>
<path fill="#484D56" opacity="1.000000" stroke="none" 
	d="
M259.765564,74.253952 
	C261.310974,74.000977 262.646057,74.007683 264.389435,74.358665 
	C264.169281,76.403297 263.540863,78.103645 262.625183,79.999146 
	C255.373444,95.235100 248.100540,110.143753 241.575119,125.372688 
	C238.329895,132.946320 236.455704,141.107407 233.961334,149.002762 
	C228.883301,148.946198 232.043808,144.632614 230.423828,142.383286 
	C232.854752,130.703506 236.034195,119.554749 241.715790,109.099518 
	C246.749725,99.836044 250.549240,89.907738 255.105209,80.374001 
	C256.140930,78.206650 258.048798,76.456055 259.765564,74.253952 
z"/>
<path fill="#434851" opacity="1.000000" stroke="none" 
	d="
M187.900818,132.011963 
	C189.403473,139.170837 190.906128,146.329697 192.832123,154.071686 
	C194.547012,161.082779 195.838531,167.510757 196.981247,174.243347 
	C197.910187,182.795212 199.623856,190.741074 207.000305,196.003281 
	C209.187424,202.230301 209.694229,208.483948 208.086655,214.999023 
	C207.619659,216.891647 208.633728,219.149734 208.600845,221.613220 
	C207.489761,221.990341 206.746719,221.994507 206.003693,221.998672 
	C201.383453,206.192963 196.396973,190.482285 192.262848,174.550446 
	C189.149734,162.553238 187.107849,150.276810 184.651352,138.112106 
	C184.369171,136.714645 184.487228,135.236374 184.452515,133.374237 
	C184.914917,132.779938 185.344513,132.606964 186.201111,132.221512 
	C187.052338,132.010010 187.476593,132.010986 187.900818,132.011963 
z"/>
<path fill="#65717E" opacity="1.000000" stroke="none" 
	d="
M197.130035,173.938721 
	C195.838531,167.510757 194.547012,161.082779 193.115051,154.338379 
	C198.674362,153.691589 204.374084,153.361221 210.446869,153.059174 
	C210.804214,153.504333 210.788513,153.921143 210.572983,154.793060 
	C210.173950,155.482895 210.069489,155.754196 210.059753,156.062042 
	C209.693665,161.126419 209.452133,166.205322 208.864746,171.243896 
	C208.734894,172.357559 207.381317,173.328568 205.971085,174.533325 
	C202.610641,174.447159 199.870346,174.192947 197.130035,173.938721 
z"/>
<path fill="#57606D" opacity="1.000000" stroke="none" 
	d="
M196.981232,174.243362 
	C199.870346,174.192947 202.610641,174.447159 205.747589,174.816696 
	C207.064911,176.100189 208.792542,177.284271 208.769897,178.433868 
	C208.657593,184.135452 208.083527,189.827957 207.336227,195.763458 
	C199.623856,190.741074 197.910187,182.795212 196.981232,174.243362 
z"/>
<path fill="#798795" opacity="1.000000" stroke="none" 
	d="
M217.859787,216.227127 
	C218.425003,221.858337 218.716507,227.744370 218.897690,233.633804 
	C219.024597,237.758575 219.000900,241.888000 218.684662,246.364624 
	C214.010468,240.880127 211.738159,234.378418 211.902985,227.079590 
	C215.718994,227.065170 217.205872,225.049713 217.054230,221.365189 
	C216.987625,219.747314 217.363815,218.111237 217.859787,216.227127 
z"/>
<path fill="#51555E" opacity="1.000000" stroke="none" 
	d="
M211.629517,226.868561 
	C211.738159,234.378418 214.010468,240.880127 218.646942,246.828552 
	C219.814041,249.287186 220.153595,251.476593 217.025757,252.959198 
	C213.229416,243.097321 209.626297,232.940796 206.013428,222.391464 
	C206.746719,221.994507 207.489761,221.990341 208.603882,221.991974 
	C209.768646,223.551041 210.562347,225.104294 211.629517,226.868561 
z"/>
<path fill="#A1B6C9" opacity="1.000000" stroke="none" 
	d="
M212.427216,141.916794 
	C211.426071,141.539520 210.749619,141.105713 210.258759,140.790909 
	C213.586182,135.657043 211.640839,130.026581 211.312576,124.284821 
	C211.505188,123.397491 211.988724,122.807945 212.733810,122.086334 
	C212.914230,128.589584 212.833084,135.224915 212.427216,141.916794 
z"/>
<path fill="#798795" opacity="1.000000" stroke="none" 
	d="
M218.625549,206.186432 
	C218.794098,206.561157 218.740616,207.162292 218.498001,208.006821 
	C218.340408,207.637756 218.371948,207.025299 218.625549,206.186432 
z"/>
<path fill="#758697" opacity="1.000000" stroke="none" 
	d="
M210.246902,155.929962 
	C210.069489,155.754196 210.173950,155.482895 210.537354,155.104858 
	C210.767532,155.289948 210.678360,155.568726 210.246902,155.929962 
z"/>
<path fill="#F9FBFB" opacity="1.000000" stroke="none" 
	d="
M213.989014,287.613861 
	C208.944504,285.949432 203.893448,283.929810 198.478470,281.829285 
	C196.628815,276.890350 195.143066,272.032288 193.904175,266.954041 
	C200.761520,273.575439 207.371994,280.417023 213.989014,287.613861 
z"/>
<path fill="#FEFFFF" opacity="1.000000" stroke="none" 
	d="
M187.927475,258.608582 
	C187.683090,258.738953 187.409378,258.560669 187.084045,258.134430 
	C187.320999,258.024261 187.609573,258.162109 187.927475,258.608582 
z"/>
<path fill="#EAECED" opacity="1.000000" stroke="none" 
	d="
M234.010620,149.415649 
	C236.455704,141.107407 238.329895,132.946320 241.575119,125.372688 
	C248.100540,110.143753 255.373444,95.235100 262.706604,80.262848 
	C263.356323,80.557037 263.637360,80.782661 263.918396,81.008286 
	C263.300140,83.420998 262.681915,85.833710 262.053894,88.626053 
	C261.051331,91.065369 260.058594,93.125053 258.682739,95.715668 
	C258.163940,97.160011 258.028351,98.073433 257.892731,98.986855 
	C257.892731,98.986855 257.949127,98.904907 257.913330,98.870781 
	C256.123718,102.288437 254.058716,105.619637 252.666794,109.211655 
	C243.920090,131.783340 237.819611,155.033707 235.053864,179.127731 
	C234.665070,182.514679 233.736847,185.839737 233.120178,189.609238 
	C232.746765,195.298111 231.961014,200.569519 231.935471,205.844589 
	C231.808243,232.117004 231.880936,258.390381 231.822052,285.097168 
	C229.504532,274.052246 226.360031,262.665619 225.159805,251.077606 
	C221.664185,217.327835 226.228821,184.153687 233.968552,151.322723 
	C234.081390,150.844086 234.033035,150.327454 234.010620,149.415649 
z"/>
<path fill="#FEFFFF" opacity="1.000000" stroke="none" 
	d="
M248.481384,238.677124 
	C248.911301,238.231842 249.570724,238.028748 250.230148,237.825653 
	C250.300919,238.048523 250.371704,238.271393 250.442474,238.494278 
	C249.865265,238.635956 249.288071,238.777618 248.481384,238.677124 
z"/>
<path fill="#E8F2F6" opacity="1.000000" stroke="none" 
	d="
M200.001236,286.981201 
	C205.477737,290.040192 210.954239,293.099182 216.430740,296.158173 
	C216.199783,296.626251 215.968826,297.094330 215.737869,297.562408 
	C212.759094,297.087555 209.780319,296.612671 206.399231,296.210571 
	C193.775635,291.125702 181.235199,286.602448 169.411621,280.654205 
	C153.659409,272.729553 140.626404,261.020355 128.675293,248.120575 
	C126.768364,246.062302 124.497986,244.340744 122.139351,242.244247 
	C118.151665,236.766022 114.420273,231.507034 110.394386,226.089783 
	C109.061134,222.498276 108.022385,219.065063 107.267654,215.333069 
	C108.007217,215.400803 108.462746,215.767319 109.008904,216.461761 
	C109.372185,217.207382 109.644920,217.624969 109.917473,218.042709 
	C126.617531,243.637344 148.054474,263.936401 176.129608,277.333679 
	C179.887009,278.997711 183.418304,280.395142 187.274887,281.962463 
	C191.394272,283.448608 195.188354,284.764862 198.982437,286.081116 
	C198.982437,286.081116 199.001938,286.016571 198.967072,286.307190 
	C199.288559,286.725616 199.644897,286.853424 200.001236,286.981201 
z"/>
<path fill="#3F4C5A" opacity="1.000000" stroke="none" 
	d="
M175.903519,277.067047 
	C148.054474,263.936401 126.617531,243.637344 109.917473,218.042709 
	C109.644920,217.624969 109.372185,217.207382 109.139160,216.191864 
	C109.768616,215.074661 110.358444,214.555328 110.948265,214.035980 
	C111.775940,214.655212 112.603622,215.274445 113.704575,216.057434 
	C128.704544,235.112915 145.783447,251.497055 165.654922,264.945496 
	C169.091614,267.271362 172.228333,270.040497 175.749802,273.179901 
	C175.965164,274.858978 175.934341,275.963013 175.903519,277.067047 
z"/>
<path fill="#5E6674" opacity="1.000000" stroke="none" 
	d="
M176.129608,277.333679 
	C175.934341,275.963013 175.965164,274.858978 175.964355,273.432312 
	C179.462677,274.909271 182.992645,276.708832 186.756653,279.107849 
	C186.977005,280.402405 186.963303,281.097504 186.949600,281.792572 
	C183.418304,280.395142 179.887009,278.997711 176.129608,277.333679 
z"/>
<path fill="#798795" opacity="1.000000" stroke="none" 
	d="
M187.274887,281.962463 
	C186.963303,281.097504 186.977005,280.402405 186.977631,279.359680 
	C190.088654,280.257294 193.212753,281.502563 196.667969,282.881226 
	C197.585312,283.846191 198.171539,284.677765 198.870102,285.795227 
	C195.188354,284.764862 191.394272,283.448608 187.274887,281.962463 
z"/>
<path fill="#555E6C" opacity="1.000000" stroke="none" 
	d="
M110.822372,213.713776 
	C110.358444,214.555328 109.768616,215.074661 109.048531,215.863907 
	C108.462746,215.767319 108.007217,215.400803 107.271034,214.940430 
	C103.672890,209.115723 100.355392,203.384903 97.037895,197.654068 
	C97.563606,197.301498 98.089317,196.948929 98.615028,196.596359 
	C102.642174,202.194763 106.669327,207.793167 110.822372,213.713776 
z"/>
<path fill="#484D56" opacity="1.000000" stroke="none" 
	d="
M187.890930,131.739960 
	C187.476593,132.010986 187.052338,132.010010 186.309082,132.008392 
	C186.400589,131.676910 186.811111,131.346069 187.494614,130.975372 
	C187.805405,131.112991 187.843216,131.290482 187.890930,131.739960 
z"/>
<path fill="#474C55" opacity="1.000000" stroke="none" 
	d="
M258.137512,98.895187 
	C258.028351,98.073433 258.163940,97.160011 258.653137,96.076653 
	C259.006866,96.370972 259.007050,96.835228 259.017517,97.647888 
	C258.812622,98.265366 258.597473,98.534439 258.137512,98.895187 
z"/>
<path fill="#ADC6D8" opacity="1.000000" stroke="none" 
	d="
M264.301331,80.995094 
	C263.637360,80.782661 263.356323,80.557037 262.993835,80.067703 
	C263.540863,78.103645 264.169281,76.403297 264.789490,74.359901 
	C266.658813,71.790993 268.536407,69.565132 270.682343,67.147964 
	C270.576660,72.397903 269.047577,77.323059 264.301331,80.995094 
z"/>
<path fill="#798795" opacity="1.000000" stroke="none" 
	d="
M199.878326,286.766602 
	C199.644897,286.853424 199.288559,286.725616 198.933380,286.307800 
	C199.259979,286.116211 199.533600,286.294281 199.878326,286.766602 
z"/>
</svg>